<mxfile host="app.diagrams.net" modified="2020-09-23T04:00:21.557Z" agent="5.0 (Windows NT 10.0; Win64; x64) AppleWebKit/537.36 (KHTML, like Gecko) Chrome/85.0.4183.102 Safari/537.36" etag="75Rh-dkn3W4ci2714v49" version="13.7.4" type="github" pages="3">
  <diagram id="gn9tKPOoIWXeO0Pi3BGs" name="Page-1">
    <mxGraphModel dx="2249" dy="713" grid="1" gridSize="10" guides="1" tooltips="1" connect="1" arrows="1" fold="1" page="1" pageScale="1" pageWidth="827" pageHeight="1169" math="0" shadow="0">
      <root>
        <mxCell id="0" />
        <mxCell id="1" parent="0" />
        <mxCell id="7zPHn0lOVf5ZXInp7xFm-1" value="" style="rounded=0;whiteSpace=wrap;html=1;" parent="1" vertex="1">
          <mxGeometry x="-720" y="80" width="320" height="840" as="geometry" />
        </mxCell>
        <mxCell id="7zPHn0lOVf5ZXInp7xFm-8" value="" style="line;strokeWidth=2;html=1;" parent="1" vertex="1">
          <mxGeometry x="-720" y="195" width="320" height="10" as="geometry" />
        </mxCell>
        <mxCell id="7zPHn0lOVf5ZXInp7xFm-10" value="" style="line;strokeWidth=2;html=1;fontSize=14;" parent="1" vertex="1">
          <mxGeometry x="-720" y="590" width="320" height="10" as="geometry" />
        </mxCell>
        <mxCell id="7zPHn0lOVf5ZXInp7xFm-13" value="" style="rounded=1;whiteSpace=wrap;html=1;fontSize=14;" parent="1" vertex="1">
          <mxGeometry x="-410.0016883116883" y="540" width="4.1558441558441555" height="50" as="geometry" />
        </mxCell>
        <mxCell id="WHSV4giuX_N2qAVbZTTi-1" value="" style="rounded=1;whiteSpace=wrap;html=1;strokeWidth=2;fillWeight=4;hachureGap=8;hachureAngle=45;sketch=1;labelBackgroundColor=#ffffff;arcSize=0;fontColor=#FFFF33;fillColor=#E6E6E6;" vertex="1" parent="1">
          <mxGeometry x="-720" y="80" width="320" height="117.5" as="geometry" />
        </mxCell>
        <mxCell id="EQkh_7MZHctsRat-JQPV-1" value="" style="shape=image;verticalLabelPosition=bottom;labelBackgroundColor=#ffffff;verticalAlign=top;aspect=fixed;imageAspect=0;image=data:image/png,iVBORw0KGgoAAAANSUhEUgAAASAAAACvCAMAAABqzPMLAAAA8FBMVEX+/v7t7e3////90xzs7Oz4+PhSFw/39/fz8/Pw8PD09PT7+/tSFw5CAABEAABJAABLAAA+AABQFA//1xxQEghODgD/2iRNCABHAApOEA5MDA1MBQBEAAf/1yj/1Cv/+vmnkIu0npvp3dvz6ef/1Cr4yy3uwC3CrqtjNjCGZWF3VE/MubfXycZoQDu9jiZdMCrOoCmsfiLarCvFlyecgn6gcR+Qc2/Fs7Hg09LUx8VxTEeTZBt0QhJ0UEy2iCNlMAqCURdVIBnluDVdJglWGwaJWReaah1YJyGZfHqLbWhrNw/JnBg1AAB6Shns49+EVBhnkIagAAAchElEQVR4nO1dC1vaTNNOUiHnhEMCKGqEVBGB2gNVtPZgT2rfpz7//9+8OzMbSNjlpEFpr2e/6/rezmOLw52dwz0zu1E0hS1NV2FtKSgUtlCw4UeaLREK+I8UFFSdPoEEiwQ1LZgoGCQYKJgkWPT30sLWhumjKqSDvjVRSEkUQsGWCAVlotBWWqGttEJbRlohUyIYW2mFttIAbYo+6wRI3TCAHqTPfwA9I0B/iYlpuPQtXCQVSLBRsCVCAQWFBJ0+gQSLBBUFgwQTBVMiGCioJFj0CRumj6ro/625S1H/ziefmz6K+nc617z0USQALeHM1A1zruvTRwbQfzvoP4BWAWgtTlFLO0VFdIpK2ilqWSetmqZh2BujzzgPIqT5BxG4/INEIfH2HGn+xejJ0xdDYfzFUgI9bDMtjL8Y/0n7onVwMGydjwwj+WLPp8+GZdKG0TsLXc/3S77vude3I/jefy1ZXVUhZluta7cUFPlyglJ5cMEQ+lsBWtG56sbFsTdGh6+w/PFe+1vJ6ooKRQduyLeOEwSBg39winW3xzfAMwGU8fbPRRHg9565Dm0a3w1uTm9C1ye8gvIBSwSfVh9y0igkZNXC9VSC8KNCdOchHHX3sjWKIy2K+62BRxC5Q/up9ZkIm0FWVWPooVt2T0bMcOxCoWDbSnQx8JiRFR2388T6pHbiZnAx49wtOmBd5wqAkyw7ajG37TCERtq8Yvtfz8XM+2vAIbxuawwWPQWRdgGBzQmPI7ZPWIptmpYMoKflYk9fKjWGPsMncNpKYXppfZcBVPRaLMPun3c6vVFMJvaMAD35DlLvQ7aBHPdCmdo/iFDHhVB2c3vadD223GBw0NaecAflFA4fQQ4Vs+UzDEpnmrB/EKFuHRAaZ9gBywMGPd1cmz5TZJUWdTJ52lgggYMrEZInj0tXUpvvIZ1MMzqGL+/HthQgu112ik4mv3ZCd4A0bS36LOysLpHaa8JWXJr7bAmmYWGIL9ZPYtEF0RZqFh2HUuwEKQZRCwBahz6bRjWM8zJ962Z4ITUyu+cBNqHvlctl1ysFCJPjdie9+bz0yeygDQHIbIdj71IeRrbopguR5xRLLMO+aMfxqDe85pzN/xgpfwdZNQ3DMGXagULGJfjgYgUNxxu0JZtI6XrubZsZFCxFUy4GLiRHjtfVDEiODO5M10RWOUDcwSvog7iDB8GWCGjzk5ScFOLRkBTi0RADRrvXOej02vgtxtFQAYEpZB2gAwq+Nbhr6WiCr1Y6Z/fp/6poHSSyDKHu5enpoDs8v9eoorhIH8QkUUEQkmjIAUKB+0XOzDKCvkAoLCEocWtQ9jzf88rHB+CEreQX6fjXCn10QI33hx92aROV70RfbU+DprVv6uCJ6vUwCMJ6iX16617RV1HOWiQ8BVk146FHRQv2bQLfHcbmFDmMrqHws3O1X629C3bwb/o3I3lCNF4I/E0IH+ok8Z8lR2fxIn3Sqc8GdFY1ZXTsZ9IX/7RPmdc4PHfhL1TCo+qLF9WjqwZ9V/cgkqdEqaW0/enqY8mHyP8HcTGt3awn1WX+oEPgVBOFtE4Z8Nl9x/BhCO2/8bivPrmXp0RpKwMKEoTNUqkZ8o8P3JNY+3O4mBbX0bqCkudf+x5/4B77DolCZhtoVrHxYe8Frdrb7w0wx2LT6Ym+empFl54XXHaHw7uP41J/6ab9x+wgTRvg/imFw34cx/1hUMJcuFS8SPpZ8XHIwNj+fFjlAL2oHv7LfLUDm+F2kZnZo+FFTN/BGA2LPiSPTt1p2zkDlITD3J00EQivG2sse2GBKL4jThW4QwrC1hk6IP/rGB+29l7525QGDhb5aptKj/hHLT7w8XmEN7G6wEkvJM9ZJ03r0WSVCxYJpmr1MH57t8rkS3S8OhqQx747e7o9NLDdT7UX6VX7+rmBjIv5K2Whr56gpbUHgLdTOtFk+giCwTcfWQYJ1kwhd7JqtrFx0/wYpb4E+w68Mu93NC1ugt/Y+bL3Iruq+z/dCgAZuN0Z9FUOUXSHFWyWaor6CK5j65nJqnHSBP9cz5Yw7GhYDije3EVIMSrfD18Iq/a6vkM+97q/wMyyn45JA/ul2sZzMU4gyr3UDsA8VuuFJfruTUj0iu7bqggQpES7KfoqsNeZCA3gQ/2DzQeo78Jm927p+evIMulLKPGJy2s7DlCMmgQf8NVvXPLV3iBefhPZI/i9QT3SnpisqquRVS1CHhAOyAHZStzv9doKVZxtrZW0mBnFmHZAEzPDlAj8Vfl8eYS0WzAy71zTHkhW1a1ZZNUAYmYsEgok6PMF7Q6TEreNu0YZdV2XkdWbFi/2aKNTyrArpSOZgXEzO/wxpq/m0luo7bFUot5VppSzDEGwFgk6CWsgq0YL43e5g09eaZWbOIgQjIs9SjRAV+2+no0PQ2jvVUhV1n9GS4Z7vaBAhd/xWC60uWTVHCGr8O8QDe0A8iHyOqHXwcxG6ftY4/g5wwGNzew1cl23tbyNKR2IDu6FucFUIx7Agw9vkCooF2XOV/H/uVDsseNrKAhuf96fj8+L2nuI9s3uKqG+DSHA76wVoEftINW4pceOZkFYFAPP8+pU8Ljpa0q3xAxnimLI1uF3cELujHaQfOEvLB0YGwuQce6lzCI6KUFKXO/EoxOPF3taLcwBdl8tMLAX1deQDPnDFTYQ+43QYyud5QhQvmTVbmPtp3SC0ZFFdAxnPfgRHyBzfMwUGz9mRvgxQB/Awsr3q2ygggYGjgDlTVZNtjglLaQFWyIU0kJCVtkfTTMiilGMbaiLjjAn9G919vcMFt39sT/a/iahGFNr7xfLFcPLlTYQAuSUbjUlo5yJy0oLCVkliQRLTQk6FySVwIeRVZASioFjCDbli/VBrCI51KIzYGLorj0pxZC4oNLBCny1kJjYUNtMsmr0cMt45DZYvggOyB+Z5NjY6vkBdpF33yxyQGwdwT/3zlcCyI7hAUBxegFAz9JZxTkoRg4ukWJoHXJAHT3x/AyhEe6wnd8vBYcjuqCvkG96Fyu5IBut2uvJAHp+smp1wf8GPlIMmwrOLF9MdjFw7BOqcQgU4+i94LOrX73VAVIOwM+V2w/cQfPIKgGkpX0Q56eikJDVLEAWxe8yGUV0HGIFNOJnI7CZ2iITFCjG/q9PwhZ6GED4BLxoGqCtNECJPoKAAG1NAUQfrBu4JEJBIuiiYBs6j1k0B6XdUj40UhgFhGUxVj8qF6U1jtr78pFoYkdhBdzJSj5IuYTHUj/RbImmY0o6X8iikF8epJxCjyI8Rgek9JBieAfWhA+qcRGLrL+mKUb1dfm3JCt6+Y0B1LxbKcwr+Fwc98BYI1l9mK1qZz4WyTjFqMMUT/PESLkvHV1UpT7tgNhW4a3DqX31ZQcKqNFCVCZLL1DZ1SmPNo1qGLRlEorxseng2Ko50QGrIE5x9920ge1f7cgq0y+qn6Bk5vZWsDEdyq51MrL1AfSQfMGkVnmpSxSD8kW3Z0x0UEYe1jg+iA6oMaPyegSTZeFgtVTaJk3KfW2jdpCBzy24ianeQyXpoZ4KgBTV0m3UxAG5s4j93tU2wrwi2Wh5kL9f5gVQLk6a5jAdt48UI74Bd83yxbSHHEraqOiAgorYG+M/e7cLqXi4Ur0DEwzINkY5kVXsONg6cTYSChKhQJJE0G0bxuFhyxxQkZX8pNfW8cORD+rn0jYqC1VXO5XGLGL2EugqIL1aLoQVl2ZXJ+VAhYSsjvUBsioKFmeuaUgWkdVMoignqwqMQYFKnGJQNuh2jEliBo1WaRuVOSBGPGZVPqpvsT3mf1ylw8q20GmAD8ic4VvnJ4proBoaUQwyBRtK0g6jGFbKl5lJG1V0QEVnd3btvvYTAplTOh0tnIZJb6EW0Fy/ZWzKGDDFb2qj2pxinMapaMhHxYU2avWQJcvbs5tjmAJgHdK7vddolIFZwiKA7BiaAuHA2oxDvYUY4qrj33KKQT2xvjl5YkaPIrwQzPd+s6+/O7c0dPiNTy763fN2pChwEnHGZpr8Z+0OynbeyMyzsyrxQfPJagKQgvFpQjHQAbWsyRMzqAqyfTVd46i92ZX5pWR3/a+K/0MDwsxXe75zenzd9P6RRzXlYgIVzOYzGzPzIKs8ihEzywgUqwoSQU8LyLCcMrVRo9MQ88UIKSB9XNQtObI2avUt0nV5DlQ9+kx/v3r4hQYZwM0F4Ou9jibJjOz2SWJ7jHDANq6fFLimnLlaEsEShSwKj8+DLiCAl6iIaPeBcARONM472MamRqs7Tbeqh99ZEN8RMmuOz/fEIKt7n7xGpThZwaA1jAWAopvbCWxw/oXBGW1EZxVKVA72HnSoV7EcmuW+E19m9l05xdgDLlrxxToH4vOtOaFntcP3pcbOBKPAL3emPbV2Vk5Vr3mDdbQRnVVwiMEpKafclopOcKxOFDLjU6IY0zWO2iewnIa0OM0cz+6b9IarHb77XW/Q2sYgOcXxlU7ZS4FG5Uy/tRFc7JIl9nXeHgaAGFrxZAcZdzMoxluv4jjb32Tt5+rhZ4HfV2uHb9+9ef/+zavfgJCX3ULQcc7UHhUnwFpS+srT59pBUMNLyloKHq4EL8oVMrByL7ZR2R6B71mW5oiHVzsNsQT7ooqr9hayruDaSIcyFhscLz0DQk7odCPIKgychAN6oPaojDQMzwQwp2iOcFJTbKPu/YDgvfOvzMD2vzTmDTbssdzRSQoriQNiqTP1CpIdhE/KjzP89HnIqj4swYllHlZgShDyxJN7HchhdFmHCC+0UauvwAFVmrIBKoZdZQ77YMbp4kM4G1NYrQMT2GE6stkstjrM6jJqJ2Ge+KlEsNJfPC+yamLASHyC3ceY7pSK55ZqUeGsIrRRq1+bFTQ8GT7vd+fQV1i1Dw0HD3RwCqvAWFkxuEl7Jfu+jF7afn6yqt5DUhZcR8neTgZ9b2PKiiRt1EMsY0hzaAxuM5LH8T9H/+WUrs8jhZ+Mmlh5YmMeZmf2asFHXQNAWwr4Q/AJNg+4Ph8FGvSRYoht1L0PjeKMFKjG6P3C0TMosuFD8D72IqWP+IwDaWJ2YOv1kxUBWgtZtUdoVd4d9wnjefoQLyYR26hQKITqvWRAqPrVr0iqIuJfC3fw5HPduz7FW6ucJJef+G1IOI6jvDurGR+0HFnVNTyU4vin/PTJeJ6e5jim/S01BFkEEw2MEQxmPNIeEP347fhPvxo01Bckx+r87BiIcsAIoHNt5kZWJf67IEYxMaQZpm4bOOaSOn2i9YIS11s0FyrxSLfJ/q+dOcPTtXcTbw8HOrZT/AxSiyxAHYzz90oqVmWiWMJPxShmpFHIpbNqjkJEKBVY4hOc/S1uC21UKLIyvib253lyVPHkw9MMkn/SFe3a2190tIwvL9s/sy+IjanPT1Yt9g9G1yU8z1Zy6PIE3dbwPg4pxcCNJemEzWNnLPW+KmejXvXlq++0iRAlt589N4OeEet2z83FLKSkXSy7JpcnYHNK5oipxgHHnEUIXsOJ1Rk5NKP3jWA66lX3sXGGHf+il502t9uQYnjn6wBo1c4q/lnvlOkEBs7TM8qBNY4fQo3jX3RA4axhjlnHf97ubIvZdZUGzf1LamJkAYpBA69lbMYOYp+g3VN0d+puR6PCojipWUOKIXVA6KBnHP+psc01Ofo7Xkc4R13qgj92mlM1tOgfTKUfD1AOThoXc2dDl6J7+QxrHOKkJs1ESScU97DBU5GWP1j4qmx/FuYbXkLJn9lX1PIdJwinKkQRjtwfGM9OVnnzkglG4bzYRISaTTkO+5+3pdweMHClkOLPXrkVyU+w5A+te3sIOWFxqsYYQUXIP9AeGebnktVlE0X8RyAY7RNvHHglbVTcJTu/xAyIs1epgSE+YmyDihtAemsYVKWbBghSSL+1eqK41hOHZtTit2cyRyzUOF5DYNkWJzhZbEMHJCZNhA9EPWEsFhgrDWEbWJGaHjiPbmhg+uHBZx0AMWFEZ8Ekh8GgjVqslCRWlLBXCYkH/+NUhAhPSaUT1EemasDgZngyBZCCE+W3G0BWp86sav0ZmSC2USuyAIbsVTb6QfGL/UT4Rzwcuh320C0o+tanD00lI/ePBuixBbNpgHC0QjKpST5VBkLCXr8IZsQcDWP3kpYRsH4IUmdgFAZA0Zy+ZBAnTvAA9CMLZvlFMRT4hTdCMRULGSywSYhowl4lyePXUJ5cUzgMTyOISIXToDhd7UicNI9ikpKrrP6aKbkmw0L55UGYNcxso0IVcFecpx+Ha4ntMX6xDVYpuKYa+izH65OmcoAcfrJumTzo6c6stvmkphDh4Svt/pTgM5u9Mn4KZTHRKslnOYxHoD4aZTzTYb5MieIjfWu+Jw4nk5qyryQhC2ztf5vFXnlr6IuAz1EJKcaJoU4AEo5NEUBr4WIPPdTL/o/Oqwo2UT2qV4q7UnwoeRSnyxPTqwRCWrl3tYNtgrapzt5BjKyCJp2N2kEaDZOLNgFumOEjoRHU5GIOSDSw1/KpNKy44TlPQ50HENaDvN7jyx05OmkcNZMUm9leqEj9c3KwWeaAjmaQD+6zvKE11kcKEFUU++ZSFcVlyCoMC40jOwqFBYJNQhLmDf2ySTUOyZyCK4vv3MCcnd+CA6oeYiCXHHwhSOuXylgfHtCzACk4ZOa1eU0aNZ09QDUO8+kBKhLyI6tmR07IYVbDfyXFp/q2LC0bEflwZJd74FRRMfDjiT6GbAdhc94J7x/f1VAEgB5INQwccBdp996H3fCtvBOIEazii+yMMwmxdUZ1a37LFNfHkgGkYQ3kejPGgOk34SjethCuGYf/NeOSF3K3kgZi9SuWMsTCEeXjjn9mpfSxbiSJIh86kfbmVwk++QGEVZmicKqgeuT/mNEoxfqiI6sB7WPvviJ6M/JM4XGsLgQI/mO9m0PrOS+yajLK6IgVner7V7LwDgsGfYqNL2KGSDtLUkSksojjjsy0PtYgFE8mRjjdMcxhuiMnsqpgYtZ4I4DxclafHf2MzEHTnR2Sim0NT/8U3ZaeUUH/iHMKGYAoDfI7dlrT1eaDciarKvahGnOvTMrCAPFalkG/OPyG1Q9hKIQPdfjdaX1gjHTq3B1GeWgFpfnpw4r2tPseTTVMylyXuHEi2Q7MXMTRqhcJVZdUP6gsElzDxEZaHwpYmfmpAg4nB0FUeKxvzY1qEEDuwjuBxtsB4lFZOL9KB4CklUds6ifHdTMA4aR2tu2Do6VsV23CGHAaoOVNDAqw0hs8ZpEPzs28A0EfrQPT69nXckRwKJRFto0BaEvFVq9sele6wBHLy2c/YZ+I1Q+iGE7zMhIB4oMcE4B0Gwvj3vlGjAEnZLUeyKeipGv/87b0iiVi93RFeWZxihG2LVEfrNJlxl/Q6orefR5nNeiU2viAjyAUJIIuCEyC1LXSlB69EPfJp0ZDUqPHS5UcScU2qcuWe5qojxXj4ac019COA4f57UKiXMJPUbAWCEYGktzIKo0DL7z6j/bJ4ffG1b6sPIQcTPyQcY1Dk+mDqXT6sjw6qlG6NfI4L6YIAD2Maqh4DrIoYZ6SDfSmfCXlH9hblKTjlBrVB4om0wdbq8HNJIxxC+utfOJQFYJPnmyeTsZ/m3P96BgH/0p6hRlG8oovOiCsTgd+W5PqYxAekwEhbDsHxXizLlgy7+t48vLzQoRqb+T4MGILFENIjsZtVE2uj9mnw0/JVT9ULCudrX6oV7aD8iKr45M928G7BaHs8Iv8Crzajx1pG/XIR4pxhndYSfRR4QSmE35MnJCCd4G6Fzmdm0eqmSarymKyqqTJKn0CkEF6V2pl98P8SfAjOT7oicWDL5M2Kuoq04feQJbYGN28EF7qGeXM8c0LJCy6eUFZR2dV4ddtNj7PKCHOXZjqSNqodLmAN7Jm6qN34D6TEh1a5dej0u2WOdzdQbsvr8bhHV03vu3Ji/TzFt5DIZYXiZs5bmuOPlbsw31OHtytYsP1qMjDtDx8a963AUcHfIBq98sS0Sy7U9gGkmTi0HOESU1tnj4Ux4LrkabF6SuoNoeLUeOQ6WBd3NCFpDuh2Aycv4G8itgygtth8N1A8RyAFEOlllzgn3SdJrzehHl0IfhsAkCajjPloKJT8X7KkuVZa+/HjqQ8VHuDDgjuk5qrj9Ghe6vrmGoU68dxfgDl6KTRKcJNAmhmlcavo+U3EcuBxPIHnY2GGscifTCCJgOk9WJbHevzWLLKkyvJDYI8q5AIknsU04J2PyAz2/Zf1ZbcRCyJlryk5fA7DJLVB9FifZS7Mj8Z5XinsZJVbtHViTJBQla3HnUT59bYVNnzpZlyp7I7q+czvQ6/74gOaO9fnOPw8LrcBfpoWsf3mmHY9MoHYOwpfR5BVrfW9OIR0+oFTfLV35dKiarvdiUOCNuoTvncWEofLe7cDQbdVowBPqMPOdpNGAMeK8Rnyh2HpURL+Oq932VxkOxrQjHU5fRRTXgThi3V56HBZ33vWTUtfkd7ZfdqcUp0VBYzoMPPUDwLT6UqzLnwKWeAFpDV5W8kFxSykndA7oSL6Gv1jXgXJ2+jltur6aMu967nFW8kz+dOeyakr41XC9GZCwefixX353xfvfdLcEB8upxRjNz0Gb+ADYTxC9hAkN1pnwh5ktXpvEO1OmHdIfr6da6vFoyQT5eXuoaanz7PTlZFX2aMLtFXs5To00r0NWmj3pu56rOyb13ja0TpXYmmOvbV/y6ZEsHiAx7uhZHvA8sFoAflC7MVMvo3WM5nKdHS9HXcRrXy12eTdhD/SdTF24GLFe/9zGGYLD50GrV5Yq5Dn+cmqzKn2OFVosbVUvSVt1GD2FyHPg8jq5IXiWeE5d+gLhPscUpUf7eYvnKK4Z7b69Jn/hvUM8JS7zicFha841B8p6BqxmdEthdW9McjnP6ttTZ9tma945B2IjdVFMjO1kA1Et8BlUD4mX3hEX1tfJtPX/n9bzCpuQ59NoWsCtHH0OKPdCS6Mr+iX8M2qgOvBFqnPs9OVsUnpmktfn3F7u/Z9DVpo7bgnZ5PvYOWAygvsiqQQ00bJSlR8HqGr64eeUQxrPXro6xEVlNSHm8LFwQkh9A4I1/tvZdXiZI2amw+hT6L3xaurpWspgWb/5tzugOu2Pglo6/URi16/SfS5+nGgJfOXLX7S/LV2744g09tVEYxlCfTJ2OqimCqT0E1phTSogMys6JQ0eej4oxi6E+nz2YBBL5D0/rXJVlKVPuK11MFxbb5hA9sLQCpD1cIk8eY3xKz7b0/TCCqvnxVxxu33J7xhPosBmjtTlpCDjWTuq8O20Sfjvb39vb2j179oovZvSFOhj2pPnPJqs7WmKbpuDi3WyAUFgoFUUh+kcLoK+XVDf/bly9fPvtw1TjMO59FhWfQZyYKCr68Mgekt1bdidFt0iuubO8kN9Y77llOT35lfeQ78SmpxpSgaT2vNLkoEgZCivXyAV5m/hz6PDdZlSkUd8tw42qCT718OTJycq5/IlkVBMWyRme+65fq9XrJ97zuhZXbe+L/OLI6QyHTMC8Oht1u97Z1EVumNDw/pT4SgLhC6kMVyrR61cwTs9I6JC/6ySiEf+aOlCjp1rPrk71h9KnJ6mJyuGn6PD0XSz95ZRnT2Diq8azsOS/f8aeS1b9iB/0HUBagtTvFZ6EI+ZHVRRTw8YK+QFjPb81JH135W598Tvo8K9VYZ6HrTyCrf4Wzf142/wfkU3IuRsLM0X91Se4z1ZsnHTIKqWmF1DRAm6KP+n/ymWbmEZxHuQAAAABJRU5ErkJggg==;" vertex="1" parent="1">
          <mxGeometry x="-651.47" y="138.57" width="65.83" height="40" as="geometry" />
        </mxCell>
        <mxCell id="WHSV4giuX_N2qAVbZTTi-2" value="" style="shape=image;verticalLabelPosition=bottom;labelBackgroundColor=#ffffff;verticalAlign=top;aspect=fixed;imageAspect=0;image=data:image/png,iVBORw0KGgoAAAANSUhEUgAAAS0AAACnCAMAAABzYfrWAAAAilBMVEX///8AAADm5ubl5eXk5OTj4+P09PTx8fH4+Pju7u719fX7+/vq6uq8vLy2traUlJR4eHjc3NzT09PFxcVCQkJqamqAgICwsLCWlpbAwMBxcXGenp4YGBiIiIhXV1cjIyM1NTVgYGDNzc2lpaVJSUk7OzsgICASEhItLS1OTk6NjY0UFBRcXFxtbW0d8LUhAAASXklEQVR4nO1da3vjqA6mtgPGJmkubdNOt93pZWZnenb//987xtiYi7jYxknaZ/hSnsay4DUIISSBEC9FlmWMV8o8y3LKa5jXMK9RXit5jTWPFZIg45W66Akq/hjhNQIQ8OdzgBeRvKqeV1HbvFqCOtd4YRevXG2cyYsAvDKbFwwE+oPWH7SWRisXDxUwWl0P8mi0ilIn0NBSeI1Cq4DRMnlJtBRe8Wj5gECyL+IhXhMP8Zp4iNfk58t0gloSVLwmGiQJWlLZoEwSDLyI5FXpBACvUueFdV7MwYvqvMhYXioQqGiKwGzV1MSTTW0lXs1roi3Njyvx5WRNIyjEqzmBaAt/TDReIxDdkAQVJ8AuXrxxhbdxXl7MxaslMHitYoAYPoRXAunDFpJAw7CV4zwfO6cgCeSUdtCcipR2kaK4tIC4eLQygNc50crNh4rMktcKWnlAJBZmDzQC88sUXnmdZ7lzbSAAL6BxEC8K8AIaZwPBeKmbUvIK5bWK1wivEV6reI3yWslrkqAGCDCvYUlaSlKdYOBlELh4xTbOxSuycSFeLayQSMS6SBSjJCSvC/EhABnqkNeCYMbaMEJeK40bszaoQKB+FP7RTiOA+IPWBLTyvJehTU081NSK7qGm1snrptYSrJpa16CeoOIEXYOaWqkT5LKm8yKSV+XiJQkMXtjFiz+Wu3gRgFezlOQrFy8VCFTyQnnhlYpXCK9hXsO8Rnit0h5zEhCdgNgE6XiFCUpJMJCSObz4R+9laFMTC+dKjpIG116G9vDn8kPwx5gkGD5EJ0Obx2qddGXzqlbN3qAlaBcgpBMU6mBWeJmjRPLKCqtxCq9hlAD9WskR6eB1Abp88zUrsns9PByv7++vH9eHV4qaj8gEh0vUTs+IVvnwdPvXlVluP9bZZaKV2/K6LLTBbsjQTBP1UoZaM1GT18Ng7xvESHW4+2UBJcv3uwPvizI7FF4R8nqlymtoJg79GmZ9EAjCS9UUrNcwrxFXDSDwk1Z6rSTrWzdScoxtaInn8krSr+4xZHwIXV4PItE5SnQZao5IbW3oRyQj+6cwVKI8Fe14gXhhF68CkNfQiBzWBmBEgkAgOWdPpZ0ycniOxYqX5wNhF6adnhCt9c0YrHi5ecAXhZZLXg8iMdVM3P0eixUvv/cAL3Mm5klnIgiEkPKYF72G9ZrrMScp9GNV3U3Bipe7RpUexWt042KAGKNBCPhjNQhgRG6mYsXLBp9Ig3BqK6fVTiN0Bl+5hTTGr6rL7+Zh1ZS/92dHK7fltT4AE+2qH2eD1ZRjcFdtNy7ZrprPRN084TeKAAYYp8VGJ0WTxbtetsjfuGpK4/wmHs1iI0ZhWmugvbscrWO5yjvSR8kIa2DM2hCyBuqTfCHt9HsqsK6uftbo3NrpwmglBKuR9fW50QJEIm5qK3NXHbCCgmtDVkeA9fPH7d3Hx9PdzT8RcJWCl1teF3nht4KOsbiqQCDgRDTygBMigA44f/g7//1js+NtLrnWzJt5+AjA+04MXtNOX4GT3hAQk072czlsrZP9wjpt9xocbjerkrJK50Wq1dFL9YIkwdiT/UIKF+tkP48AYmnt9MPd6b8eSetiZUmgPGMYv/10Uz5Jgq+ly7u3hr/Weg9seb3+20m8PhNaurdbd0KWytsNrZz9PZKWg+LtBng0vDnJs/N4u7UvzPqzvJLXOu9GxjoHwuZfnbMir4lW9QQtaefd2JNykSicFbFLXt/VGi9JoPNqOLj2AL8ww5JXKUnHNG4gaPsFAEF1IIg47lzMS9fV11fJy+0H0fHau/Amo7x0NXk900t3Ie3U0dNnakgFr9dI7VgeXyuN1+fX5e1zVV4+COBjk5uLycCLwAdEf6FzoaWJxJXp5LWK9nbTRSJspHnElgwtWdVoXW0X+V9TXmNY2F/LxgHy2u8JLb5MaG2wgVjwrBpeDzc9rw7jjJa745M82/i5vd9jwhRbGv+gsB6yyyyr9tJn1ZP0Lf+wFT0goGH5SHReaA+ory/HSvyY97rdEXrXlkyN4Lg87RS0LN8TndfaqWJQDS1Y89qxT6HL+5fbtgf1CzQaam3vdnAr6w1eWEWLbMHBNWNsAR7gY9DiTTPRyiRaWdYdSgxjK1fHVmboApDUuiHK96ZZ6ID/bQjAqfPqHRpcQ8TOcGJiNG7ol7K6ZerYMnzFBoKhX8NKikJLQbwH+LDsUEgxrVReDwGsmvKDKrwo8MDdqddEfdgm07egvh1VXnHHGgelcdDCWH8J7ZQBUvm5VHj9FwVWi7Bs3Avwc3UetEbvE8GInd4DvAS8/lZDxE75Tfn/+93jZr/brZptbHF8/GaYWt+GxjH7nTfllH1ihA3RsU8czLIoFBSDpB23sxBIsywyzbKA+vCEWwLOq5Sq2Pv9DrcKPBMGVEyriu7v1QO1I+l5IWALtPM1roYbJ4zMSBqZIQIYCJd9yx2xE2Xfurf7VQ9rQ9frH2+U204t+xaleHc/KGL7gZf91vuWYEH7lg7EMtqpPRGvBwKxGr68Sl62pblZwfcvPSmRpNfWa38YsuIStdMQWoCEwZIAt1jtMHGi1fVg1+H1LEmJ/V56UrQcu2opr9Vdtdy4QhE76q7aXuy3A0GzHN68Yrk2+M7oX8UY3Uhe36wXb5B5Rh8RHUQd/gBBIACPCShixxVFAwbFIHub8lr3HPZ8nYuL2KlpN/eq7n/1q/Xibyh1OBFE2hG0sIJHtJAHeORZdWWfOLeva0l/fd9R4/wYe86PC35Qdk0Fr6Kyp2JVmGfVnFXCs+qlPcBt/eGO9tLu8IKZmdHCH59420knLoGIvQX47Lo8tufLQe5e15XdAz9apJmNjx1abG29+oGd1QPc779lRezY/luVrW05La7eaM6OF9lc/d3xyuzV9o0l9N9a2WuD5r/VBsVQGdmi1agMgFFqOoFB2j5WWjr3e00cBDKexuSg8KL1w9W+bAmorclty9jGxfDyAxH2O4XiBPx+p7Yn4JYaI9IRJwDIazFeNlva8bIE10soTmCG3+kpPMDtk7E3phOMzzVy7Elt48Yn1+VrS4FYGyGZ49FirCO1V5CL8gA3T5Jyh7yWMzErrA7th5DMmNg5OGJH8LK1k9BMjDwhk43zzUScvFR2hxK+3d4q0oRvDxTkGyUTY8hstGrniDQ1iOA5agkM3PCITBVDJt6fVDu10SrT5RqprZfvsk+ty1to/ZMwM8sFoDVlVz1jJpo7XSg6KHPMegCtPGlctXdX3RolOp25q2FZE0ExslbpNYAAdzYZoxCDg0GKXbyozcu2Nu/KEY3z8woBMcfHpoDXhsxGi/qjgwANYsgVZOz47INKGrvjO5ePjVc7zexD/f1s7VSSgvrWp9bl/2d2aL4uL0nPrsuPzJFkGxr1XfXKuU90WVzDu+qBl+3JFW0FDUQHBS2uXTSnsETXISN2rRjMewJha681az6yInu2SCfw8yo1XjoBtmwQz6W/cQYvGc1ZkziCBNGcgEis5AFJafXodyt+nfnWRuR2Ky2Xry11nt6Aud1y2BroPClaOpqzsg9Jk2mntu308eSW5sR2eds165WlQYsdrFefwS6fKN/pynXm80TT5DsFnOiyfJxHw9joIC3fqdNbpqkhwyHF5cFSSgLhkILs80RJAPHC0bwAvxHk9pYxeGGdV6xnjtK4CdGc6rB1eOnaZ9V7jSA6T7M6fzkpdFYd8MQa4aV7pmhOWynaagSTM6bbPvhH9Ml1edDHppyKlqrL26bA1l3pXNGcTgfgoLeb4gDcyFDbEf4RJbi7wD7W/d52frS3m8MTOiqac44GwT+/NSIpEI5CIS97SINw5/0EhuwHVRvn9Xy3NIgsU0IAJulbfi/dOH2L5AyITPwgZl79sfoWFNG+yyRaOahvjb5zxQfE7LEFopXXQMA9ywBeY9ACPAN/VJnduLPr8iPHFugv/281c2z9a7/zTfGXP93YSrSrlhnTgf1cF5o4fVdtOyO1sRi2xXWSj03crnqZNREBCmozF/Ppa2KeAS/c0rj7IVap1sRF9C0EBk5c3ZTTtVMCxZDts88QnxiBFpi/5g67dyN+7RQMRX+Jik9cGq3Z+0ROCqY3OBLoy0TsE8HY170V+zpvn2ihZQHBgMQcTE3MwbyJOcRbtawhIgkIrcC46nUlCQZeMmsIK21eTeNqZJu1mnKL1caVWuMQlDVE4xWToQQAAiW3b4mgGEA9asoDGW/fonDkJ+0JRsvrS7zPB04mdSRjtVPiyQfxJaI5BQHYyasPPA6tCkb9FzobWknPfKTGaNvu2nLL5Ll5j5ZPO3UFqx80Xqc58xGZ8ijtM+U1tS6Isal1QYxNrUuy19REkr323E0jxZJUEoAqalN+viIfr1Lyal6xd6d4O6DoxlV24xQC/jyLAWKJs2rFy8/V1TvCYs6qGRCpopQ1HRWxk+CseinttJV27txu/2zC8YnhFOsP9AK002Ro1XACmrb8eAihdQgnSm3fcf5oztH+W1o0JxpkqEN08fLrjfcF8t/KmnXgDc7eZZSDyivef8u3NviAkM4WoxNmx2UO9+c7/fZAywrjslLdOZr6OjZfRAPXpGzedFLmcNR/iIR+p7q8JoH838/3B0aISI6HKkJ2m+tRN9g0oj7C73R6VvrT3ueTORdGpXy//e/u6enu9jaQphiG62vo8h0BjUhVPae0aWY/x30+kKXZ9IENTca55UFvnDYTZ9/1ps1EETyzxOU3w48lGSWJJsBVT29cfL+mRnN6Y8isW0QaBnjm7TShsqGniSFbWDtF/SGyO+VyIri+gi4/NMiVQjgVXOgUaE2aiePu8+kIYNNzstKujDPjqoMzUQatL37zJS6h89OEcNWBxs3vF9I/xAIahBqxgz27xvllQ00NYsRZ9dmiOX23Te4nKOtXVzd7d1p/DS7xZT61Lq+ihdDac5EwXL6vK+a5BUGF6yRoJc6RBFlcB4tPtRml2t80WHFediYAoLSiPrirnp4jaYzFJlGKqxrt7axjjvJtX3cBODjqSsF1lSb/lsNi47cG6laz6NxuKHBS1HyjY8QFsM9HSpiU11CiS7uooj6FNTA/gy5vaoxFxkq23vqME9sDHvI0t24NJI+Dy+D1KXV5Ay1BsHp4+m2Zv36+f2zaaATLXz5K1B8NXinRKnqPhqT5TqO9J2qGyWq32zw+3l835XGzW1UlZqzrgRkdBLm82aNLa1zSfKdDLl15Y5nz/jX9TjTn1W2uO9GM69QGgjbtVYssF8m++9fgHP8WXHh24xy5dPtRmDRPM+CJlWd6xI7qHcV5mbmTdV5y/rK4yUidvEbf9XZe7XS6B3grgUjcZKR94z65Lj8TLYqiVsbdgmgl9nZzeCdDntAjozlbXjGj68bFa563Wya/HK+JfvOaeDWvyaCYTH6ITI6XzlmxJ8A6wXBM1hLkDl5Y8iodvAaChleUqF8ztXFUNs7gxeze+ICYpG9FeOmOvgclKppT8IoR9e9lPt9L98K007HRnB2vCvLGN8ru6+nyE9EiYPCCXjZs8WhOqcunuZszJK/HRnMqjQvCdc0Wuptz5h13q4Rr4iqAseQVlF3XoX5f0H0+C+pbHS8WMA/e/9FOVV6lfzJulkRrkXtfBwINLWif6EXLoQt44VrBvBLc+6rrmYYqB+mZYVXO0DOH+9dUPTNKpwUa1+u0Hrh+OnhBCreXlwpEsmjOU6+JLYFH1N+zJe6rvnh9yxm7zgmYc89IHdLui2unXrTyGrpM74pbuJZCa2TWnzwgEv12PciG6N4n8quZAV6qXQ+E6xZcG4rMv08MA5HWZhy2T1Odl0Hg4gU1DgsC8Oo7FGE8r+zGhYBoYU1m33KffTjkdZ95ePLa0BDYaupvlvnPIy4xmnNh7VTOX2Z4ht1X2aJ+EJ8brWYxeR1cd74xmi2M1thoTr//FnBunjv8Aby5RiLO6CWv3fXLr79vtpvK6b+lnNE7/bdC0ZwzXSycviZDFI3LJ2MuLyN1bdVA0PQ9MmJnGi/Q7zToWzTO79TrxzSMEoBXoQ7mqIgdbzRn0O/0vNGcy2unXyua84uhNSOaMxiLEevba0VzqrM+XcROgmz8wtMZ497nua9hXiOuGkAQIMUe0iABHsVrNIG3cSopMj6E3+8UGCWOaE5vdJDpuz/mFhH3iNTWhum3iPiAEGh9cu30S0VzfjW0grEYaWei/2atqTMxTzoT4VgMKeaShz4uSHBKXioQYzQIAf+X1yCQB4g/2umX0uWda8N5dXlHNOefXbXSuK9isRnVuKm8/g97YKOQxfk+ZQAAAABJRU5ErkJggg==;" vertex="1" parent="1">
          <mxGeometry x="-570.39" y="137.45" width="71" height="39.39" as="geometry" />
        </mxCell>
        <mxCell id="jNCiRLzvS9trpozXA7ra-1" value="" style="shape=image;verticalLabelPosition=bottom;labelBackgroundColor=#ffffff;verticalAlign=top;aspect=fixed;imageAspect=0;image=data:image/png,iVBORw0KGgoAAAANSUhEUgAAAOEAAADhCAMAAAAJbSJIAAAAhFBMVEX///8AAAATExNcXFzn5+fAwMBwcHBHR0fd3d3V1dX8/Pzz8/M6OjpDQ0Otra2FhYXv7+8uLi7Kysq3t7d7e3vj4+OdnZ2ysrKLi4tiYmLHx8fX19ccHBybm5uqqqokJCRRUVE0NDSKiopsbGwoKCiAgIAXFxcNDQ0eHh5WVlaTk5NgYGDDl8T0AAAJb0lEQVR4nO2daVvqPBCGBVlbFxYRQUFwQ/H//7/z8h6P5knTZibNJK1X7o9K2jxtJ8tkMjk7SyQSiUQikUgkEglP5P0rK/NR7Fq6Mxl0SLzNY9fUkcU7TeB/vMauqxt7ssBO5zZ2ZV24YgjsHPLY1XVgx1HYWcaurgMHlsJB7Oo6wFPYiV1dBy55ClvYK97yFG5j15dPzlP4Ebu+DsxYCrtZ7Po6MBpyJI5jV9eJ+9vrCp4eVIWb2JWV4FlVeB67NhLMVYWHSezqCLD4BYZoAcY9x9i1keBGVbiLXRsJwBA7bZxB2cBxTz92dSS4UBXexa6NBE+qwsfYtZFgDZ/pb+wRJ7/fEMGbcxO7NhLcqQr3sWsjAU4iF7GrI0AOA7e2uvcrgVlyG32KVsBhNW2jK8PG+Ncb4hkobKFP0c4nSOy2gLfhhjX62nbaCOdjW9gv10QYK54Zfam4UfToEomr/U3jia6QtVjcHKZ0hS01RM6K54X9ag2E45FopyGuGArn9ss1EE6P2ItdWSdYy/KPsWvrAG9F9zp2dR145gg860PZUY/OSC24XxBKTKDlnjHuhcbEmwVlUJbjU4RlgQtSEYiC4cxHcSbLjI6Bu14zCqJCkmlcutZzA98L0xsBPsUHRsGQCsG1yzND3afIWGULqHDyphbkegVxlY1ROqDCmp7dc7U0w6cYUCFY0ju93BdHtfgLvVxAhTVXWFxb4nAKnQ3pX3kIj6IHDIdTiKMSh5CDD7U8vSkOpxBWq10WydC5T35E4RS+qMUYPppvHJ37wRSiGa6pxVTgCmRnZDCFHiJ/VuoVyIYYTKGH6C107lNLBVMIZugW+IOzL2qcYiiFI6faaYArg2qIoRQu1UJvjnE/8KUPiYVCzYAhmnlHLKQDj6mz7pOAJm5KKbHeq0W2tNv0py4fmE57fIrOwcytce67CkRDbDDuu3v69os3AvdoirYYYo2ImH3supM4uAvEKVhjqROZ1g5DvKqhMLNfvgEwYjCKtKFHpA1+yzjabxCdegGivF2ncagXbY/OkOHADoz53wgFBgPwW64IBTB1Qs34ULZzHxon2uwJgpIpzQbYDiNOyAgs0XUJBULMgOEd1s3Ccg8fxL29QACFfje95ODKIAxxAyjEcUjtQHQwRELUUQCFEChS1ww1n+Kj3fEaQCF8VvV38nINUV4hmuGMcodq4Hr2JATyCr1v5IUu3G6I8gohcNJHVgT0KVqrLK+wq/7cx4Z6pnNfXKEXdz7CywYirhC+qXcv++lfoc62X4srhEU/P1mCsO2y1VlaYQbufD+7stAQbcvJ0goFzFCrgW0tUlohpvOiCbDCMkRphWCGnOj8KjAJgWWKKqwQvX91/IgqLEMUnuOjGXrb4Ao+xcdhJfBCDtW//QI2j19W/xZa0jrufATCHBuEv4wPa/vNouAxAWlsKSXUcucjzKyZgbj0mCtgY79dBHwmXhnbbxcBn8lzmrnK5tEMtbFSQ6ANJ6gw09cGwSUsuJyR/YbB8ZvDKn+x3zE0nvPKNM8Q/ZqhloTgYTwqBTqWffnvfujBwL6/KP8l7OTynZgTnfsVkzjB+FLv7nyE+vwEZ8CYzMJ7eieqL11QIawvfHIFWEHnfrkjVlAh1MB/omqqEcgpxD5ZIOs/pOUpN0Q5hdy1WjZEn6KcQu56Oxuic19MITtmgg0xxkNMITvuhQ+4NUuTEIgpBD8DJ0MAHVqQh5hCyJPHTS9Ag+bcl1KIMYQyBxlNwDddZohSCtFV5NWB8QMYYpmjS0ohxCP6c+dX3KSs8lIKSY+3LhgwXPKhCClEb59Y7l+4S8nanZBCjEcUS6RO+VKEZsCw/EXd7ckHfIqP4/txkXv4lPfG32iMwIsxN5YYwbqh3OGMOHCKh1N6ARqxpX0h1BueeLbfPQByZtgU577kuSLNSGzq3Y+okE/t95dHNE18EwzxUlKg5lOMg+w5vhN7BcQR7CtOxN+iLzO9V9hHFvgifo5YFncl8SPEQWnj4+o8Dqsnya4wkUgkopGNt4OL016rx89N31dLnvU3q1MAz2E/uJ1FPY4pm2lHDOy29b1g+fIDL/rcjyZyacqacV1PY37sFq853UbROC7LClJn7F92OsqLoPOpjIr4/b3ra8x35RcNfRJj9llel07nzW3D1aLSg7ALemJoz5a3xmVhwbbn4SHgEXC5/fgLfvAnIVGM8NxXgbI5gRvRQ8mctg91xjRpnv/IM5uMlK9JIorGAPHguR3rosR5dZDT3snOKM7mQHLatBCtDf0sKLrVZOSTe3Ziur4pOvafl4vepDd7fdP/QQ+QLA5lbtanc2Tmxccp78fQm5nVdxOeFdZtqKPJQjNz911yomuUb2y0G0IEXe8B/0nt97WuEIdEuolKd4raeWWahgnaEzXxCH4XB6010fTLOvX1dqbQeGMcLzUJNU6YCoNatFIf+VqqgJdkOIDoWF1ZIzicMSSFQzOtK6EabEkNdoaRPbTWFL98w3uvdXIVE7hX19ThwQojbVIHbbDxI4QYc9nD0OFxG1OnwC9oTTvYtrEhgaZI9pRpGJMaA3fgLe9IF4UQdeO0C6zb/04LFQhFNj5uGLbSdltDMJnRyqA19buzUgdMxjjQh/6CFvkC3hlj82u/rTfgYRpXY8EXQeu7YOZkjG+GnNSyXT7U33gCEZgMLQEu1N/Y/IKP2FfKFjP2TQ/gL6NFL0Hz9W4wXeGNh0AO0eyG542DSFrXZS2DvllhZw20e4aXiE4q2oxcy2dQ+D++wvrpPKvBOWAhIRyeQUvdjIyubr0By/CpcY4MdUGb4g9Ropb+m9qua74tHEnowR/ik/w93u9F6b8yPeqNOkbWnVvnynNbaPP/qfgyVOHI7tX47z17hfzt9JR/BQ/s3V8LzkYFR430BPjMFBT1/nzzOhgW/szYQWeIW70YvN4MipkcjPMZz5BdmxyfETlcTnZi8cW5vR7/w3EZURPgSHcVf8kN69AGeBNV4hEFgRbYSNsuuOHmpCD5YGvdhfa0CD91KsEUA7Sj/7A+cJctEZUL5yfkNgMZsLxFt7CC6+qLBmlGf7gvrMMouH5NlXHywUNLJ6WdRte9PbgvXWUbhlvD/wHPLfzHoZ4b5fbBdNGprI+0nH7hPV5s6o6q8m0hDmIXS9+J3laZTwyPYy8D/9FGmTCubgOG0ZSQz+bLq3nfr6H01vPlcj4LFV6SSCQSiUQikUgkEj/8AWJ4m338uIc8AAAAAElFTkSuQmCC;" vertex="1" parent="1">
          <mxGeometry x="-480.54" y="119.49999999999999" width="50.5" height="50.5" as="geometry" />
        </mxCell>
        <mxCell id="7zPHn0lOVf5ZXInp7xFm-14" value="" style="line;strokeWidth=2;html=1;" parent="1" vertex="1">
          <mxGeometry x="-703.3733333333333" y="167.1428571428571" width="20" height="2.8571428571428568" as="geometry" />
        </mxCell>
        <mxCell id="7zPHn0lOVf5ZXInp7xFm-15" value="" style="line;strokeWidth=2;html=1;" parent="1" vertex="1">
          <mxGeometry x="-703.3733333333333" y="158.57142857142856" width="20" height="2.8571428571428568" as="geometry" />
        </mxCell>
        <mxCell id="7zPHn0lOVf5ZXInp7xFm-16" value="" style="line;strokeWidth=2;html=1;" parent="1" vertex="1">
          <mxGeometry x="-703.3733333333333" y="150" width="20" height="2.8571428571428568" as="geometry" />
        </mxCell>
        <mxCell id="WHSV4giuX_N2qAVbZTTi-3" value="" style="rounded=1;whiteSpace=wrap;html=1;strokeWidth=2;fillWeight=4;hachureGap=8;hachureAngle=45;fillColor=#1ba1e2;sketch=1;labelBackgroundColor=#ffffff;arcSize=0;" vertex="1" parent="1">
          <mxGeometry x="-720" y="200" width="320" height="140" as="geometry" />
        </mxCell>
        <mxCell id="7zPHn0lOVf5ZXInp7xFm-9" value="img" style="text;html=1;strokeColor=none;fillColor=none;align=center;verticalAlign=middle;whiteSpace=wrap;rounded=0;" parent="1" vertex="1">
          <mxGeometry x="-570.3850216450217" y="280" width="16.623376623376622" height="20" as="geometry" />
        </mxCell>
        <mxCell id="WHSV4giuX_N2qAVbZTTi-4" value="" style="rounded=1;whiteSpace=wrap;html=1;strokeWidth=2;fillWeight=4;hachureGap=8;hachureAngle=45;sketch=1;labelBackgroundColor=#ffffff;fillColor=#FF0000;arcSize=0;" vertex="1" parent="1">
          <mxGeometry x="-710" y="360" width="300" height="190" as="geometry" />
        </mxCell>
        <mxCell id="WHSV4giuX_N2qAVbZTTi-5" value="" style="rounded=1;whiteSpace=wrap;html=1;strokeWidth=2;fillWeight=4;hachureGap=8;hachureAngle=45;sketch=1;labelBackgroundColor=#ffffff;arcSize=0;fontColor=#FFFF33;fillColor=#E6E6E6;" vertex="1" parent="1">
          <mxGeometry x="-720" y="600" width="320" height="320" as="geometry" />
        </mxCell>
        <mxCell id="7zPHn0lOVf5ZXInp7xFm-6" value="&lt;h1&gt;&amp;nbsp; &amp;nbsp; &amp;nbsp; &amp;nbsp; &amp;nbsp; &amp;nbsp; &amp;nbsp; &amp;nbsp;BierClub&lt;/h1&gt;&lt;p&gt;Lorem ipsum dolor sit amet, consectetur adipisicing elit, sed do eiusmod tempor incididunt ut labore et dolore magna aliqua.&lt;/p&gt;" style="text;html=1;strokeColor=none;fillColor=none;spacing=5;spacingTop=-20;whiteSpace=wrap;overflow=hidden;rounded=0;" parent="1" vertex="1">
          <mxGeometry x="-720" y="600" width="320" height="120" as="geometry" />
        </mxCell>
        <mxCell id="7zPHn0lOVf5ZXInp7xFm-19" value="" style="rounded=1;whiteSpace=wrap;html=1;arcSize=0;" parent="1" vertex="1">
          <mxGeometry x="-710" y="720" width="300" height="30" as="geometry" />
        </mxCell>
        <mxCell id="7zPHn0lOVf5ZXInp7xFm-22" value="Ingrese mail" style="text;html=1;strokeColor=none;fillColor=none;align=center;verticalAlign=middle;whiteSpace=wrap;rounded=0;" parent="1" vertex="1">
          <mxGeometry x="-588.74" y="725" width="53.33333333333333" height="20" as="geometry" />
        </mxCell>
        <mxCell id="7zPHn0lOVf5ZXInp7xFm-20" value="" style="rounded=1;whiteSpace=wrap;html=1;arcSize=0;" parent="1" vertex="1">
          <mxGeometry x="-710" y="760" width="300" height="30" as="geometry" />
        </mxCell>
        <mxCell id="7zPHn0lOVf5ZXInp7xFm-21" value="REGISTRARSE" style="text;html=1;strokeColor=none;fillColor=none;align=center;verticalAlign=middle;whiteSpace=wrap;rounded=0;" parent="1" vertex="1">
          <mxGeometry x="-585.64" y="760" width="26.67" height="30" as="geometry" />
        </mxCell>
        <mxCell id="7zPHn0lOVf5ZXInp7xFm-7" value="&lt;h1&gt;&amp;nbsp; &amp;nbsp; &amp;nbsp; &amp;nbsp; &amp;nbsp; &amp;nbsp; &amp;nbsp;Contactos&lt;/h1&gt;&lt;p&gt;Lorem ipsum dolor sit amet, consectetur adipisicing elit, sed do eiusmod tempor incididunt ut labore et dolore magna aliqua.&lt;/p&gt;" style="text;html=1;strokeColor=none;fillColor=none;spacing=5;spacingTop=-20;whiteSpace=wrap;overflow=hidden;rounded=0;" parent="1" vertex="1">
          <mxGeometry x="-720" y="810" width="320" height="120" as="geometry" />
        </mxCell>
      </root>
    </mxGraphModel>
  </diagram>
  <diagram id="SwcJtndgTxoeqV7aYlF8" name="Page-2">
    <mxGraphModel dx="2012" dy="594" grid="1" gridSize="10" guides="1" tooltips="1" connect="1" arrows="1" fold="1" page="1" pageScale="1" pageWidth="827" pageHeight="1169" math="0" shadow="0">
      <root>
        <mxCell id="KpPTK9KQGnR3QfAC0WlO-0" />
        <mxCell id="KpPTK9KQGnR3QfAC0WlO-1" parent="KpPTK9KQGnR3QfAC0WlO-0" />
        <mxCell id="vzdy2ACjwdqujKmpEcTy-0" value="" style="rounded=0;whiteSpace=wrap;html=1;fontSize=14;" parent="KpPTK9KQGnR3QfAC0WlO-1" vertex="1">
          <mxGeometry x="-410" y="840" width="320" height="550" as="geometry" />
        </mxCell>
        <mxCell id="vzdy2ACjwdqujKmpEcTy-7" value="Img Carrito" style="text;html=1;strokeColor=none;fillColor=none;align=center;verticalAlign=middle;whiteSpace=wrap;rounded=0;" parent="KpPTK9KQGnR3QfAC0WlO-1" vertex="1">
          <mxGeometry x="-137.75064935064938" y="900" width="14.129870129870127" height="20" as="geometry" />
        </mxCell>
        <mxCell id="vzdy2ACjwdqujKmpEcTy-8" value="" style="line;strokeWidth=2;html=1;" parent="KpPTK9KQGnR3QfAC0WlO-1" vertex="1">
          <mxGeometry x="-410" y="970" width="320" height="10" as="geometry" />
        </mxCell>
        <mxCell id="vzdy2ACjwdqujKmpEcTy-11" value="" style="line;strokeWidth=2;html=1;" parent="KpPTK9KQGnR3QfAC0WlO-1" vertex="1">
          <mxGeometry x="-410" y="1120" width="320" height="10" as="geometry" />
        </mxCell>
        <mxCell id="vzdy2ACjwdqujKmpEcTy-16" value="" style="rounded=1;whiteSpace=wrap;html=1;fontSize=14;rotation=90;" parent="KpPTK9KQGnR3QfAC0WlO-1" vertex="1">
          <mxGeometry x="-113.5292207792208" y="1025.78" width="33.246753246753244" height="10" as="geometry" />
        </mxCell>
        <mxCell id="vzdy2ACjwdqujKmpEcTy-25" value="" style="line;strokeWidth=4;html=1;perimeter=backbonePerimeter;points=[];outlineConnect=0;" parent="KpPTK9KQGnR3QfAC0WlO-1" vertex="1">
          <mxGeometry x="-410" y="1220" width="320" height="10" as="geometry" />
        </mxCell>
        <mxCell id="d85Sv6hBDxU-u9N6TVZe-0" value="" style="rounded=1;whiteSpace=wrap;html=1;strokeWidth=2;fillWeight=4;hachureGap=8;hachureAngle=45;sketch=1;labelBackgroundColor=#ffffff;arcSize=0;fontColor=#FFFF33;fillColor=#E6E6E6;" vertex="1" parent="KpPTK9KQGnR3QfAC0WlO-1">
          <mxGeometry x="-410" y="840" width="320" height="135" as="geometry" />
        </mxCell>
        <mxCell id="vzdy2ACjwdqujKmpEcTy-3" value="" style="line;strokeWidth=2;html=1;" parent="KpPTK9KQGnR3QfAC0WlO-1" vertex="1">
          <mxGeometry x="-382.15584415584414" y="917.1428571428571" width="12.467532467532466" height="2.8571428571428568" as="geometry" />
        </mxCell>
        <mxCell id="vzdy2ACjwdqujKmpEcTy-4" value="" style="line;strokeWidth=2;html=1;" parent="KpPTK9KQGnR3QfAC0WlO-1" vertex="1">
          <mxGeometry x="-382.15584415584414" y="908.5714285714286" width="12.467532467532466" height="2.8571428571428568" as="geometry" />
        </mxCell>
        <mxCell id="vzdy2ACjwdqujKmpEcTy-5" value="" style="line;strokeWidth=2;html=1;" parent="KpPTK9KQGnR3QfAC0WlO-1" vertex="1">
          <mxGeometry x="-382.15584415584414" y="900" width="12.467532467532466" height="2.8571428571428568" as="geometry" />
        </mxCell>
        <mxCell id="sxbWZBS5a4G5XSB57c3L-0" value="" style="shape=image;verticalLabelPosition=bottom;labelBackgroundColor=#ffffff;verticalAlign=top;aspect=fixed;imageAspect=0;image=data:image/png,iVBORw0KGgoAAAANSUhEUgAAAOEAAADhCAMAAAAJbSJIAAAAhFBMVEX///8AAAATExNcXFzn5+fAwMBwcHBHR0fd3d3V1dX8/Pzz8/M6OjpDQ0Otra2FhYXv7+8uLi7Kysq3t7d7e3vj4+OdnZ2ysrKLi4tiYmLHx8fX19ccHBybm5uqqqokJCRRUVE0NDSKiopsbGwoKCiAgIAXFxcNDQ0eHh5WVlaTk5NgYGDDl8T0AAAJb0lEQVR4nO2daVvqPBCGBVlbFxYRQUFwQ/H//7/z8h6P5knTZibNJK1X7o9K2jxtJ8tkMjk7SyQSiUQikUgkEglP5P0rK/NR7Fq6Mxl0SLzNY9fUkcU7TeB/vMauqxt7ssBO5zZ2ZV24YgjsHPLY1XVgx1HYWcaurgMHlsJB7Oo6wFPYiV1dBy55ClvYK97yFG5j15dPzlP4Ebu+DsxYCrtZ7Po6MBpyJI5jV9eJ+9vrCp4eVIWb2JWV4FlVeB67NhLMVYWHSezqCLD4BYZoAcY9x9i1keBGVbiLXRsJwBA7bZxB2cBxTz92dSS4UBXexa6NBE+qwsfYtZFgDZ/pb+wRJ7/fEMGbcxO7NhLcqQr3sWsjAU4iF7GrI0AOA7e2uvcrgVlyG32KVsBhNW2jK8PG+Ncb4hkobKFP0c4nSOy2gLfhhjX62nbaCOdjW9gv10QYK54Zfam4UfToEomr/U3jia6QtVjcHKZ0hS01RM6K54X9ag2E45FopyGuGArn9ss1EE6P2ItdWSdYy/KPsWvrAG9F9zp2dR145gg860PZUY/OSC24XxBKTKDlnjHuhcbEmwVlUJbjU4RlgQtSEYiC4cxHcSbLjI6Bu14zCqJCkmlcutZzA98L0xsBPsUHRsGQCsG1yzND3afIWGULqHDyphbkegVxlY1ROqDCmp7dc7U0w6cYUCFY0ju93BdHtfgLvVxAhTVXWFxb4nAKnQ3pX3kIj6IHDIdTiKMSh5CDD7U8vSkOpxBWq10WydC5T35E4RS+qMUYPppvHJ37wRSiGa6pxVTgCmRnZDCFHiJ/VuoVyIYYTKGH6C107lNLBVMIZugW+IOzL2qcYiiFI6faaYArg2qIoRQu1UJvjnE/8KUPiYVCzYAhmnlHLKQDj6mz7pOAJm5KKbHeq0W2tNv0py4fmE57fIrOwcytce67CkRDbDDuu3v69os3AvdoirYYYo2ImH3supM4uAvEKVhjqROZ1g5DvKqhMLNfvgEwYjCKtKFHpA1+yzjabxCdegGivF2ncagXbY/OkOHADoz53wgFBgPwW64IBTB1Qs34ULZzHxon2uwJgpIpzQbYDiNOyAgs0XUJBULMgOEd1s3Ccg8fxL29QACFfje95ODKIAxxAyjEcUjtQHQwRELUUQCFEChS1ww1n+Kj3fEaQCF8VvV38nINUV4hmuGMcodq4Hr2JATyCr1v5IUu3G6I8gohcNJHVgT0KVqrLK+wq/7cx4Z6pnNfXKEXdz7CywYirhC+qXcv++lfoc62X4srhEU/P1mCsO2y1VlaYQbufD+7stAQbcvJ0goFzFCrgW0tUlohpvOiCbDCMkRphWCGnOj8KjAJgWWKKqwQvX91/IgqLEMUnuOjGXrb4Ao+xcdhJfBCDtW//QI2j19W/xZa0jrufATCHBuEv4wPa/vNouAxAWlsKSXUcucjzKyZgbj0mCtgY79dBHwmXhnbbxcBn8lzmrnK5tEMtbFSQ6ANJ6gw09cGwSUsuJyR/YbB8ZvDKn+x3zE0nvPKNM8Q/ZqhloTgYTwqBTqWffnvfujBwL6/KP8l7OTynZgTnfsVkzjB+FLv7nyE+vwEZ8CYzMJ7eieqL11QIawvfHIFWEHnfrkjVlAh1MB/omqqEcgpxD5ZIOs/pOUpN0Q5hdy1WjZEn6KcQu56Oxuic19MITtmgg0xxkNMITvuhQ+4NUuTEIgpBD8DJ0MAHVqQh5hCyJPHTS9Ag+bcl1KIMYQyBxlNwDddZohSCtFV5NWB8QMYYpmjS0ohxCP6c+dX3KSs8lIKSY+3LhgwXPKhCClEb59Y7l+4S8nanZBCjEcUS6RO+VKEZsCw/EXd7ckHfIqP4/txkXv4lPfG32iMwIsxN5YYwbqh3OGMOHCKh1N6ARqxpX0h1BueeLbfPQByZtgU577kuSLNSGzq3Y+okE/t95dHNE18EwzxUlKg5lOMg+w5vhN7BcQR7CtOxN+iLzO9V9hHFvgifo5YFncl8SPEQWnj4+o8Dqsnya4wkUgkopGNt4OL016rx89N31dLnvU3q1MAz2E/uJ1FPY4pm2lHDOy29b1g+fIDL/rcjyZyacqacV1PY37sFq853UbROC7LClJn7F92OsqLoPOpjIr4/b3ra8x35RcNfRJj9llel07nzW3D1aLSg7ALemJoz5a3xmVhwbbn4SHgEXC5/fgLfvAnIVGM8NxXgbI5gRvRQ8mctg91xjRpnv/IM5uMlK9JIorGAPHguR3rosR5dZDT3snOKM7mQHLatBCtDf0sKLrVZOSTe3Ziur4pOvafl4vepDd7fdP/QQ+QLA5lbtanc2Tmxccp78fQm5nVdxOeFdZtqKPJQjNz911yomuUb2y0G0IEXe8B/0nt97WuEIdEuolKd4raeWWahgnaEzXxCH4XB6010fTLOvX1dqbQeGMcLzUJNU6YCoNatFIf+VqqgJdkOIDoWF1ZIzicMSSFQzOtK6EabEkNdoaRPbTWFL98w3uvdXIVE7hX19ThwQojbVIHbbDxI4QYc9nD0OFxG1OnwC9oTTvYtrEhgaZI9pRpGJMaA3fgLe9IF4UQdeO0C6zb/04LFQhFNj5uGLbSdltDMJnRyqA19buzUgdMxjjQh/6CFvkC3hlj82u/rTfgYRpXY8EXQeu7YOZkjG+GnNSyXT7U33gCEZgMLQEu1N/Y/IKP2FfKFjP2TQ/gL6NFL0Hz9W4wXeGNh0AO0eyG542DSFrXZS2DvllhZw20e4aXiE4q2oxcy2dQ+D++wvrpPKvBOWAhIRyeQUvdjIyubr0By/CpcY4MdUGb4g9Ropb+m9qua74tHEnowR/ik/w93u9F6b8yPeqNOkbWnVvnynNbaPP/qfgyVOHI7tX47z17hfzt9JR/BQ/s3V8LzkYFR430BPjMFBT1/nzzOhgW/szYQWeIW70YvN4MipkcjPMZz5BdmxyfETlcTnZi8cW5vR7/w3EZURPgSHcVf8kN69AGeBNV4hEFgRbYSNsuuOHmpCD5YGvdhfa0CD91KsEUA7Sj/7A+cJctEZUL5yfkNgMZsLxFt7CC6+qLBmlGf7gvrMMouH5NlXHywUNLJ6WdRte9PbgvXWUbhlvD/wHPLfzHoZ4b5fbBdNGprI+0nH7hPV5s6o6q8m0hDmIXS9+J3laZTwyPYy8D/9FGmTCubgOG0ZSQz+bLq3nfr6H01vPlcj4LFV6SSCQSiUQikUgkEj/8AWJ4m338uIc8AAAAAElFTkSuQmCC;" vertex="1" parent="KpPTK9KQGnR3QfAC0WlO-1">
          <mxGeometry x="-155.93999999999997" y="891.4300000000001" width="50.5" height="50.5" as="geometry" />
        </mxCell>
        <mxCell id="ZOCnjQ008Wew6s7AdRrT-0" value="" style="shape=image;verticalLabelPosition=bottom;labelBackgroundColor=#ffffff;verticalAlign=top;aspect=fixed;imageAspect=0;image=data:image/png,iVBORw0KGgoAAAANSUhEUgAAASAAAACvCAMAAABqzPMLAAAA8FBMVEX+/v7t7e3////90xzs7Oz4+PhSFw/39/fz8/Pw8PD09PT7+/tSFw5CAABEAABJAABLAAA+AABQFA//1xxQEghODgD/2iRNCABHAApOEA5MDA1MBQBEAAf/1yj/1Cv/+vmnkIu0npvp3dvz6ef/1Cr4yy3uwC3CrqtjNjCGZWF3VE/MubfXycZoQDu9jiZdMCrOoCmsfiLarCvFlyecgn6gcR+Qc2/Fs7Hg09LUx8VxTEeTZBt0QhJ0UEy2iCNlMAqCURdVIBnluDVdJglWGwaJWReaah1YJyGZfHqLbWhrNw/JnBg1AAB6Shns49+EVBhnkIagAAAchElEQVR4nO1dC1vaTNNOUiHnhEMCKGqEVBGB2gNVtPZgT2rfpz7//9+8OzMbSNjlpEFpr2e/6/rezmOLw52dwz0zu1E0hS1NV2FtKSgUtlCw4UeaLREK+I8UFFSdPoEEiwQ1LZgoGCQYKJgkWPT30sLWhumjKqSDvjVRSEkUQsGWCAVlotBWWqGttEJbRlohUyIYW2mFttIAbYo+6wRI3TCAHqTPfwA9I0B/iYlpuPQtXCQVSLBRsCVCAQWFBJ0+gQSLBBUFgwQTBVMiGCioJFj0CRumj6ro/625S1H/ziefmz6K+nc617z0USQALeHM1A1zruvTRwbQfzvoP4BWAWgtTlFLO0VFdIpK2ilqWSetmqZh2BujzzgPIqT5BxG4/INEIfH2HGn+xejJ0xdDYfzFUgI9bDMtjL8Y/0n7onVwMGydjwwj+WLPp8+GZdKG0TsLXc/3S77vude3I/jefy1ZXVUhZluta7cUFPlyglJ5cMEQ+lsBWtG56sbFsTdGh6+w/PFe+1vJ6ooKRQduyLeOEwSBg39winW3xzfAMwGU8fbPRRHg9565Dm0a3w1uTm9C1ye8gvIBSwSfVh9y0igkZNXC9VSC8KNCdOchHHX3sjWKIy2K+62BRxC5Q/up9ZkIm0FWVWPooVt2T0bMcOxCoWDbSnQx8JiRFR2388T6pHbiZnAx49wtOmBd5wqAkyw7ajG37TCERtq8Yvtfz8XM+2vAIbxuawwWPQWRdgGBzQmPI7ZPWIptmpYMoKflYk9fKjWGPsMncNpKYXppfZcBVPRaLMPun3c6vVFMJvaMAD35DlLvQ7aBHPdCmdo/iFDHhVB2c3vadD223GBw0NaecAflFA4fQQ4Vs+UzDEpnmrB/EKFuHRAaZ9gBywMGPd1cmz5TZJUWdTJ52lgggYMrEZInj0tXUpvvIZ1MMzqGL+/HthQgu112ik4mv3ZCd4A0bS36LOysLpHaa8JWXJr7bAmmYWGIL9ZPYtEF0RZqFh2HUuwEKQZRCwBahz6bRjWM8zJ962Z4ITUyu+cBNqHvlctl1ysFCJPjdie9+bz0yeygDQHIbIdj71IeRrbopguR5xRLLMO+aMfxqDe85pzN/xgpfwdZNQ3DMGXagULGJfjgYgUNxxu0JZtI6XrubZsZFCxFUy4GLiRHjtfVDEiODO5M10RWOUDcwSvog7iDB8GWCGjzk5ScFOLRkBTi0RADRrvXOej02vgtxtFQAYEpZB2gAwq+Nbhr6WiCr1Y6Z/fp/6poHSSyDKHu5enpoDs8v9eoorhIH8QkUUEQkmjIAUKB+0XOzDKCvkAoLCEocWtQ9jzf88rHB+CEreQX6fjXCn10QI33hx92aROV70RfbU+DprVv6uCJ6vUwCMJ6iX16617RV1HOWiQ8BVk146FHRQv2bQLfHcbmFDmMrqHws3O1X629C3bwb/o3I3lCNF4I/E0IH+ok8Z8lR2fxIn3Sqc8GdFY1ZXTsZ9IX/7RPmdc4PHfhL1TCo+qLF9WjqwZ9V/cgkqdEqaW0/enqY8mHyP8HcTGt3awn1WX+oEPgVBOFtE4Z8Nl9x/BhCO2/8bivPrmXp0RpKwMKEoTNUqkZ8o8P3JNY+3O4mBbX0bqCkudf+x5/4B77DolCZhtoVrHxYe8Frdrb7w0wx2LT6Ym+empFl54XXHaHw7uP41J/6ab9x+wgTRvg/imFw34cx/1hUMJcuFS8SPpZ8XHIwNj+fFjlAL2oHv7LfLUDm+F2kZnZo+FFTN/BGA2LPiSPTt1p2zkDlITD3J00EQivG2sse2GBKL4jThW4QwrC1hk6IP/rGB+29l7525QGDhb5aptKj/hHLT7w8XmEN7G6wEkvJM9ZJ03r0WSVCxYJpmr1MH57t8rkS3S8OhqQx747e7o9NLDdT7UX6VX7+rmBjIv5K2Whr56gpbUHgLdTOtFk+giCwTcfWQYJ1kwhd7JqtrFx0/wYpb4E+w68Mu93NC1ugt/Y+bL3Iruq+z/dCgAZuN0Z9FUOUXSHFWyWaor6CK5j65nJqnHSBP9cz5Yw7GhYDije3EVIMSrfD18Iq/a6vkM+97q/wMyyn45JA/ul2sZzMU4gyr3UDsA8VuuFJfruTUj0iu7bqggQpES7KfoqsNeZCA3gQ/2DzQeo78Jm927p+evIMulLKPGJy2s7DlCMmgQf8NVvXPLV3iBefhPZI/i9QT3SnpisqquRVS1CHhAOyAHZStzv9doKVZxtrZW0mBnFmHZAEzPDlAj8Vfl8eYS0WzAy71zTHkhW1a1ZZNUAYmYsEgok6PMF7Q6TEreNu0YZdV2XkdWbFi/2aKNTyrArpSOZgXEzO/wxpq/m0luo7bFUot5VppSzDEGwFgk6CWsgq0YL43e5g09eaZWbOIgQjIs9SjRAV+2+no0PQ2jvVUhV1n9GS4Z7vaBAhd/xWC60uWTVHCGr8O8QDe0A8iHyOqHXwcxG6ftY4/g5wwGNzew1cl23tbyNKR2IDu6FucFUIx7Agw9vkCooF2XOV/H/uVDsseNrKAhuf96fj8+L2nuI9s3uKqG+DSHA76wVoEftINW4pceOZkFYFAPP8+pU8Ljpa0q3xAxnimLI1uF3cELujHaQfOEvLB0YGwuQce6lzCI6KUFKXO/EoxOPF3taLcwBdl8tMLAX1deQDPnDFTYQ+43QYyud5QhQvmTVbmPtp3SC0ZFFdAxnPfgRHyBzfMwUGz9mRvgxQB/Awsr3q2ygggYGjgDlTVZNtjglLaQFWyIU0kJCVtkfTTMiilGMbaiLjjAn9G919vcMFt39sT/a/iahGFNr7xfLFcPLlTYQAuSUbjUlo5yJy0oLCVkliQRLTQk6FySVwIeRVZASioFjCDbli/VBrCI51KIzYGLorj0pxZC4oNLBCny1kJjYUNtMsmr0cMt45DZYvggOyB+Z5NjY6vkBdpF33yxyQGwdwT/3zlcCyI7hAUBxegFAz9JZxTkoRg4ukWJoHXJAHT3x/AyhEe6wnd8vBYcjuqCvkG96Fyu5IBut2uvJAHp+smp1wf8GPlIMmwrOLF9MdjFw7BOqcQgU4+i94LOrX73VAVIOwM+V2w/cQfPIKgGkpX0Q56eikJDVLEAWxe8yGUV0HGIFNOJnI7CZ2iITFCjG/q9PwhZ6GED4BLxoGqCtNECJPoKAAG1NAUQfrBu4JEJBIuiiYBs6j1k0B6XdUj40UhgFhGUxVj8qF6U1jtr78pFoYkdhBdzJSj5IuYTHUj/RbImmY0o6X8iikF8epJxCjyI8Rgek9JBieAfWhA+qcRGLrL+mKUb1dfm3JCt6+Y0B1LxbKcwr+Fwc98BYI1l9mK1qZz4WyTjFqMMUT/PESLkvHV1UpT7tgNhW4a3DqX31ZQcKqNFCVCZLL1DZ1SmPNo1qGLRlEorxseng2Ko50QGrIE5x9920ge1f7cgq0y+qn6Bk5vZWsDEdyq51MrL1AfSQfMGkVnmpSxSD8kW3Z0x0UEYe1jg+iA6oMaPyegSTZeFgtVTaJk3KfW2jdpCBzy24ianeQyXpoZ4KgBTV0m3UxAG5s4j93tU2wrwi2Wh5kL9f5gVQLk6a5jAdt48UI74Bd83yxbSHHEraqOiAgorYG+M/e7cLqXi4Ur0DEwzINkY5kVXsONg6cTYSChKhQJJE0G0bxuFhyxxQkZX8pNfW8cORD+rn0jYqC1VXO5XGLGL2EugqIL1aLoQVl2ZXJ+VAhYSsjvUBsioKFmeuaUgWkdVMoignqwqMQYFKnGJQNuh2jEliBo1WaRuVOSBGPGZVPqpvsT3mf1ylw8q20GmAD8ic4VvnJ4proBoaUQwyBRtK0g6jGFbKl5lJG1V0QEVnd3btvvYTAplTOh0tnIZJb6EW0Fy/ZWzKGDDFb2qj2pxinMapaMhHxYU2avWQJcvbs5tjmAJgHdK7vddolIFZwiKA7BiaAuHA2oxDvYUY4qrj33KKQT2xvjl5YkaPIrwQzPd+s6+/O7c0dPiNTy763fN2pChwEnHGZpr8Z+0OynbeyMyzsyrxQfPJagKQgvFpQjHQAbWsyRMzqAqyfTVd46i92ZX5pWR3/a+K/0MDwsxXe75zenzd9P6RRzXlYgIVzOYzGzPzIKs8ihEzywgUqwoSQU8LyLCcMrVRo9MQ88UIKSB9XNQtObI2avUt0nV5DlQ9+kx/v3r4hQYZwM0F4Ou9jibJjOz2SWJ7jHDANq6fFLimnLlaEsEShSwKj8+DLiCAl6iIaPeBcARONM472MamRqs7Tbeqh99ZEN8RMmuOz/fEIKt7n7xGpThZwaA1jAWAopvbCWxw/oXBGW1EZxVKVA72HnSoV7EcmuW+E19m9l05xdgDLlrxxToH4vOtOaFntcP3pcbOBKPAL3emPbV2Vk5Vr3mDdbQRnVVwiMEpKafclopOcKxOFDLjU6IY0zWO2iewnIa0OM0cz+6b9IarHb77XW/Q2sYgOcXxlU7ZS4FG5Uy/tRFc7JIl9nXeHgaAGFrxZAcZdzMoxluv4jjb32Tt5+rhZ4HfV2uHb9+9ef/+zavfgJCX3ULQcc7UHhUnwFpS+srT59pBUMNLyloKHq4EL8oVMrByL7ZR2R6B71mW5oiHVzsNsQT7ooqr9hayruDaSIcyFhscLz0DQk7odCPIKgychAN6oPaojDQMzwQwp2iOcFJTbKPu/YDgvfOvzMD2vzTmDTbssdzRSQoriQNiqTP1CpIdhE/KjzP89HnIqj4swYllHlZgShDyxJN7HchhdFmHCC+0UauvwAFVmrIBKoZdZQ77YMbp4kM4G1NYrQMT2GE6stkstjrM6jJqJ2Ge+KlEsNJfPC+yamLASHyC3ceY7pSK55ZqUeGsIrRRq1+bFTQ8GT7vd+fQV1i1Dw0HD3RwCqvAWFkxuEl7Jfu+jF7afn6yqt5DUhZcR8neTgZ9b2PKiiRt1EMsY0hzaAxuM5LH8T9H/+WUrs8jhZ+Mmlh5YmMeZmf2asFHXQNAWwr4Q/AJNg+4Ph8FGvSRYoht1L0PjeKMFKjG6P3C0TMosuFD8D72IqWP+IwDaWJ2YOv1kxUBWgtZtUdoVd4d9wnjefoQLyYR26hQKITqvWRAqPrVr0iqIuJfC3fw5HPduz7FW6ucJJef+G1IOI6jvDurGR+0HFnVNTyU4vin/PTJeJ6e5jim/S01BFkEEw2MEQxmPNIeEP347fhPvxo01Bckx+r87BiIcsAIoHNt5kZWJf67IEYxMaQZpm4bOOaSOn2i9YIS11s0FyrxSLfJ/q+dOcPTtXcTbw8HOrZT/AxSiyxAHYzz90oqVmWiWMJPxShmpFHIpbNqjkJEKBVY4hOc/S1uC21UKLIyvib253lyVPHkw9MMkn/SFe3a2190tIwvL9s/sy+IjanPT1Yt9g9G1yU8z1Zy6PIE3dbwPg4pxcCNJemEzWNnLPW+KmejXvXlq++0iRAlt589N4OeEet2z83FLKSkXSy7JpcnYHNK5oipxgHHnEUIXsOJ1Rk5NKP3jWA66lX3sXGGHf+il502t9uQYnjn6wBo1c4q/lnvlOkEBs7TM8qBNY4fQo3jX3RA4axhjlnHf97ubIvZdZUGzf1LamJkAYpBA69lbMYOYp+g3VN0d+puR6PCojipWUOKIXVA6KBnHP+psc01Ofo7Xkc4R13qgj92mlM1tOgfTKUfD1AOThoXc2dDl6J7+QxrHOKkJs1ESScU97DBU5GWP1j4qmx/FuYbXkLJn9lX1PIdJwinKkQRjtwfGM9OVnnzkglG4bzYRISaTTkO+5+3pdweMHClkOLPXrkVyU+w5A+te3sIOWFxqsYYQUXIP9AeGebnktVlE0X8RyAY7RNvHHglbVTcJTu/xAyIs1epgSE+YmyDihtAemsYVKWbBghSSL+1eqK41hOHZtTit2cyRyzUOF5DYNkWJzhZbEMHJCZNhA9EPWEsFhgrDWEbWJGaHjiPbmhg+uHBZx0AMWFEZ8Ekh8GgjVqslCRWlLBXCYkH/+NUhAhPSaUT1EemasDgZngyBZCCE+W3G0BWp86sav0ZmSC2USuyAIbsVTb6QfGL/UT4Rzwcuh320C0o+tanD00lI/ePBuixBbNpgHC0QjKpST5VBkLCXr8IZsQcDWP3kpYRsH4IUmdgFAZA0Zy+ZBAnTvAA9CMLZvlFMRT4hTdCMRULGSywSYhowl4lyePXUJ5cUzgMTyOISIXToDhd7UicNI9ikpKrrP6aKbkmw0L55UGYNcxso0IVcFecpx+Ha4ntMX6xDVYpuKYa+izH65OmcoAcfrJumTzo6c6stvmkphDh4Svt/pTgM5u9Mn4KZTHRKslnOYxHoD4aZTzTYb5MieIjfWu+Jw4nk5qyryQhC2ztf5vFXnlr6IuAz1EJKcaJoU4AEo5NEUBr4WIPPdTL/o/Oqwo2UT2qV4q7UnwoeRSnyxPTqwRCWrl3tYNtgrapzt5BjKyCJp2N2kEaDZOLNgFumOEjoRHU5GIOSDSw1/KpNKy44TlPQ50HENaDvN7jyx05OmkcNZMUm9leqEj9c3KwWeaAjmaQD+6zvKE11kcKEFUU++ZSFcVlyCoMC40jOwqFBYJNQhLmDf2ySTUOyZyCK4vv3MCcnd+CA6oeYiCXHHwhSOuXylgfHtCzACk4ZOa1eU0aNZ09QDUO8+kBKhLyI6tmR07IYVbDfyXFp/q2LC0bEflwZJd74FRRMfDjiT6GbAdhc94J7x/f1VAEgB5INQwccBdp996H3fCtvBOIEazii+yMMwmxdUZ1a37LFNfHkgGkYQ3kejPGgOk34SjethCuGYf/NeOSF3K3kgZi9SuWMsTCEeXjjn9mpfSxbiSJIh86kfbmVwk++QGEVZmicKqgeuT/mNEoxfqiI6sB7WPvviJ6M/JM4XGsLgQI/mO9m0PrOS+yajLK6IgVner7V7LwDgsGfYqNL2KGSDtLUkSksojjjsy0PtYgFE8mRjjdMcxhuiMnsqpgYtZ4I4DxclafHf2MzEHTnR2Sim0NT/8U3ZaeUUH/iHMKGYAoDfI7dlrT1eaDciarKvahGnOvTMrCAPFalkG/OPyG1Q9hKIQPdfjdaX1gjHTq3B1GeWgFpfnpw4r2tPseTTVMylyXuHEi2Q7MXMTRqhcJVZdUP6gsElzDxEZaHwpYmfmpAg4nB0FUeKxvzY1qEEDuwjuBxtsB4lFZOL9KB4CklUds6ifHdTMA4aR2tu2Do6VsV23CGHAaoOVNDAqw0hs8ZpEPzs28A0EfrQPT69nXckRwKJRFto0BaEvFVq9sele6wBHLy2c/YZ+I1Q+iGE7zMhIB4oMcE4B0Gwvj3vlGjAEnZLUeyKeipGv/87b0iiVi93RFeWZxihG2LVEfrNJlxl/Q6orefR5nNeiU2viAjyAUJIIuCEyC1LXSlB69EPfJp0ZDUqPHS5UcScU2qcuWe5qojxXj4ac019COA4f57UKiXMJPUbAWCEYGktzIKo0DL7z6j/bJ4ffG1b6sPIQcTPyQcY1Dk+mDqXT6sjw6qlG6NfI4L6YIAD2Maqh4DrIoYZ6SDfSmfCXlH9hblKTjlBrVB4om0wdbq8HNJIxxC+utfOJQFYJPnmyeTsZ/m3P96BgH/0p6hRlG8oovOiCsTgd+W5PqYxAekwEhbDsHxXizLlgy7+t48vLzQoRqb+T4MGILFENIjsZtVE2uj9mnw0/JVT9ULCudrX6oV7aD8iKr45M928G7BaHs8Iv8Crzajx1pG/XIR4pxhndYSfRR4QSmE35MnJCCd4G6Fzmdm0eqmSarymKyqqTJKn0CkEF6V2pl98P8SfAjOT7oicWDL5M2Kuoq04feQJbYGN28EF7qGeXM8c0LJCy6eUFZR2dV4ddtNj7PKCHOXZjqSNqodLmAN7Jm6qN34D6TEh1a5dej0u2WOdzdQbsvr8bhHV03vu3Ji/TzFt5DIZYXiZs5bmuOPlbsw31OHtytYsP1qMjDtDx8a963AUcHfIBq98sS0Sy7U9gGkmTi0HOESU1tnj4Ux4LrkabF6SuoNoeLUeOQ6WBd3NCFpDuh2Aycv4G8itgygtth8N1A8RyAFEOlllzgn3SdJrzehHl0IfhsAkCajjPloKJT8X7KkuVZa+/HjqQ8VHuDDgjuk5qrj9Ghe6vrmGoU68dxfgDl6KTRKcJNAmhmlcavo+U3EcuBxPIHnY2GGscifTCCJgOk9WJbHevzWLLKkyvJDYI8q5AIknsU04J2PyAz2/Zf1ZbcRCyJlryk5fA7DJLVB9FifZS7Mj8Z5XinsZJVbtHViTJBQla3HnUT59bYVNnzpZlyp7I7q+czvQ6/74gOaO9fnOPw8LrcBfpoWsf3mmHY9MoHYOwpfR5BVrfW9OIR0+oFTfLV35dKiarvdiUOCNuoTvncWEofLe7cDQbdVowBPqMPOdpNGAMeK8Rnyh2HpURL+Oq932VxkOxrQjHU5fRRTXgThi3V56HBZ33vWTUtfkd7ZfdqcUp0VBYzoMPPUDwLT6UqzLnwKWeAFpDV5W8kFxSykndA7oSL6Gv1jXgXJ2+jltur6aMu967nFW8kz+dOeyakr41XC9GZCwefixX353xfvfdLcEB8upxRjNz0Gb+ADYTxC9hAkN1pnwh5ktXpvEO1OmHdIfr6da6vFoyQT5eXuoaanz7PTlZFX2aMLtFXs5To00r0NWmj3pu56rOyb13ja0TpXYmmOvbV/y6ZEsHiAx7uhZHvA8sFoAflC7MVMvo3WM5nKdHS9HXcRrXy12eTdhD/SdTF24GLFe/9zGGYLD50GrV5Yq5Dn+cmqzKn2OFVosbVUvSVt1GD2FyHPg8jq5IXiWeE5d+gLhPscUpUf7eYvnKK4Z7b69Jn/hvUM8JS7zicFha841B8p6BqxmdEthdW9McjnP6ttTZ9tma945B2IjdVFMjO1kA1Et8BlUD4mX3hEX1tfJtPX/n9bzCpuQ59NoWsCtHH0OKPdCS6Mr+iX8M2qgOvBFqnPs9OVsUnpmktfn3F7u/Z9DVpo7bgnZ5PvYOWAygvsiqQQ00bJSlR8HqGr64eeUQxrPXro6xEVlNSHm8LFwQkh9A4I1/tvZdXiZI2amw+hT6L3xaurpWspgWb/5tzugOu2Pglo6/URi16/SfS5+nGgJfOXLX7S/LV2744g09tVEYxlCfTJ2OqimCqT0E1phTSogMys6JQ0eej4oxi6E+nz2YBBL5D0/rXJVlKVPuK11MFxbb5hA9sLQCpD1cIk8eY3xKz7b0/TCCqvnxVxxu33J7xhPosBmjtTlpCDjWTuq8O20Sfjvb39vb2j179oovZvSFOhj2pPnPJqs7WmKbpuDi3WyAUFgoFUUh+kcLoK+XVDf/bly9fPvtw1TjMO59FhWfQZyYKCr68Mgekt1bdidFt0iuubO8kN9Y77llOT35lfeQ78SmpxpSgaT2vNLkoEgZCivXyAV5m/hz6PDdZlSkUd8tw42qCT718OTJycq5/IlkVBMWyRme+65fq9XrJ97zuhZXbe+L/OLI6QyHTMC8Oht1u97Z1EVumNDw/pT4SgLhC6kMVyrR61cwTs9I6JC/6ySiEf+aOlCjp1rPrk71h9KnJ6mJyuGn6PD0XSz95ZRnT2Diq8azsOS/f8aeS1b9iB/0HUBagtTvFZ6EI+ZHVRRTw8YK+QFjPb81JH135W598Tvo8K9VYZ6HrTyCrf4Wzf142/wfkU3IuRsLM0X91Se4z1ZsnHTIKqWmF1DRAm6KP+n/ymWbmEZxHuQAAAABJRU5ErkJggg==;" vertex="1" parent="KpPTK9KQGnR3QfAC0WlO-1">
          <mxGeometry x="-340.99" y="876.71" width="96.69" height="58.75" as="geometry" />
        </mxCell>
        <mxCell id="d85Sv6hBDxU-u9N6TVZe-1" value="" style="rounded=1;whiteSpace=wrap;html=1;strokeWidth=2;fillWeight=4;hachureGap=8;hachureAngle=45;sketch=1;labelBackgroundColor=#ffffff;arcSize=0;fontColor=#FFFF33;fillColor=#E6E6E6;" vertex="1" parent="KpPTK9KQGnR3QfAC0WlO-1">
          <mxGeometry x="-410" y="1130" width="320" height="94" as="geometry" />
        </mxCell>
        <mxCell id="vzdy2ACjwdqujKmpEcTy-15" value="&lt;h1&gt;&amp;nbsp; &amp;nbsp; &amp;nbsp; &amp;nbsp; &amp;nbsp; &amp;nbsp; &amp;nbsp; Contactos&lt;/h1&gt;&lt;p&gt;Lorem ipsum dolor sit amet, consectetur adipisicing elit, sed do eiusmod tempor incididunt ut labore et dolore magna aliqua.&lt;/p&gt;" style="text;html=1;strokeColor=none;fillColor=none;spacing=5;spacingTop=-20;whiteSpace=wrap;overflow=hidden;rounded=0;" parent="KpPTK9KQGnR3QfAC0WlO-1" vertex="1">
          <mxGeometry x="-410" y="1130" width="320" height="90" as="geometry" />
        </mxCell>
        <mxCell id="jptq_sX2a2hwmelIzoLK-0" value="" style="rounded=1;whiteSpace=wrap;html=1;strokeWidth=2;fillWeight=4;hachureGap=8;hachureAngle=45;sketch=1;labelBackgroundColor=#ffffff;fillColor=#FF0000;" vertex="1" parent="KpPTK9KQGnR3QfAC0WlO-1">
          <mxGeometry x="-400" y="980" width="300" height="140" as="geometry" />
        </mxCell>
        <mxCell id="jptq_sX2a2hwmelIzoLK-2" value="" style="rounded=1;whiteSpace=wrap;html=1;strokeWidth=2;fillWeight=4;hachureGap=8;hachureAngle=45;sketch=1;labelBackgroundColor=#ffffff;arcSize=0;fontColor=#FFFF33;fillColor=#E6E6E6;" vertex="1" parent="KpPTK9KQGnR3QfAC0WlO-1">
          <mxGeometry x="-410" y="1224" width="320" height="166" as="geometry" />
        </mxCell>
        <mxCell id="vzdy2ACjwdqujKmpEcTy-12" value="NEWSLETTER" style="text;html=1;strokeColor=none;fillColor=none;align=center;verticalAlign=middle;whiteSpace=wrap;rounded=0;" parent="KpPTK9KQGnR3QfAC0WlO-1" vertex="1">
          <mxGeometry x="-255.69171236171238" y="1240.0036363636364" width="11.390091390091387" height="12.727272727272728" as="geometry" />
        </mxCell>
        <mxCell id="vzdy2ACjwdqujKmpEcTy-13" value="&lt;h1&gt;&amp;nbsp; &amp;nbsp; &amp;nbsp; &amp;nbsp; &amp;nbsp; &amp;nbsp; &amp;nbsp; &amp;nbsp; BierClub&lt;/h1&gt;&lt;p&gt;Lorem ipsum dolor sit amet, consectetur adipisicing elit, sed do eiusmod tempor incididunt ut labore et dolore magna aliqua.&lt;/p&gt;" style="text;html=1;strokeColor=none;fillColor=none;spacing=5;spacingTop=-20;whiteSpace=wrap;overflow=hidden;rounded=0;" parent="KpPTK9KQGnR3QfAC0WlO-1" vertex="1">
          <mxGeometry x="-410" y="1290" width="320" height="90" as="geometry" />
        </mxCell>
        <mxCell id="vzdy2ACjwdqujKmpEcTy-14" value="" style="rounded=1;whiteSpace=wrap;html=1;" parent="KpPTK9KQGnR3QfAC0WlO-1" vertex="1">
          <mxGeometry x="-400" y="1260" width="300" height="19.09" as="geometry" />
        </mxCell>
        <mxCell id="D9-iNRXL1J2Lo9Dnd4sX-0" value="" style="shape=image;verticalLabelPosition=bottom;labelBackgroundColor=#ffffff;verticalAlign=top;aspect=fixed;imageAspect=0;image=data:image/png,iVBORw0KGgoAAAANSUhEUgAAAS0AAACnCAMAAABzYfrWAAAAilBMVEX///8AAADm5ubl5eXk5OTj4+P09PTx8fH4+Pju7u719fX7+/vq6uq8vLy2traUlJR4eHjc3NzT09PFxcVCQkJqamqAgICwsLCWlpbAwMBxcXGenp4YGBiIiIhXV1cjIyM1NTVgYGDNzc2lpaVJSUk7OzsgICASEhItLS1OTk6NjY0UFBRcXFxtbW0d8LUhAAASXklEQVR4nO1da3vjqA6mtgPGJmkubdNOt93pZWZnenb//987xtiYi7jYxknaZ/hSnsay4DUIISSBEC9FlmWMV8o8y3LKa5jXMK9RXit5jTWPFZIg45W66Akq/hjhNQIQ8OdzgBeRvKqeV1HbvFqCOtd4YRevXG2cyYsAvDKbFwwE+oPWH7SWRisXDxUwWl0P8mi0ilIn0NBSeI1Cq4DRMnlJtBRe8Wj5gECyL+IhXhMP8Zp4iNfk58t0gloSVLwmGiQJWlLZoEwSDLyI5FXpBACvUueFdV7MwYvqvMhYXioQqGiKwGzV1MSTTW0lXs1roi3Njyvx5WRNIyjEqzmBaAt/TDReIxDdkAQVJ8AuXrxxhbdxXl7MxaslMHitYoAYPoRXAunDFpJAw7CV4zwfO6cgCeSUdtCcipR2kaK4tIC4eLQygNc50crNh4rMktcKWnlAJBZmDzQC88sUXnmdZ7lzbSAAL6BxEC8K8AIaZwPBeKmbUvIK5bWK1wivEV6reI3yWslrkqAGCDCvYUlaSlKdYOBlELh4xTbOxSuycSFeLayQSMS6SBSjJCSvC/EhABnqkNeCYMbaMEJeK40bszaoQKB+FP7RTiOA+IPWBLTyvJehTU081NSK7qGm1snrptYSrJpa16CeoOIEXYOaWqkT5LKm8yKSV+XiJQkMXtjFiz+Wu3gRgFezlOQrFy8VCFTyQnnhlYpXCK9hXsO8Rnit0h5zEhCdgNgE6XiFCUpJMJCSObz4R+9laFMTC+dKjpIG116G9vDn8kPwx5gkGD5EJ0Obx2qddGXzqlbN3qAlaBcgpBMU6mBWeJmjRPLKCqtxCq9hlAD9WskR6eB1Abp88zUrsns9PByv7++vH9eHV4qaj8gEh0vUTs+IVvnwdPvXlVluP9bZZaKV2/K6LLTBbsjQTBP1UoZaM1GT18Ng7xvESHW4+2UBJcv3uwPvizI7FF4R8nqlymtoJg79GmZ9EAjCS9UUrNcwrxFXDSDwk1Z6rSTrWzdScoxtaInn8krSr+4xZHwIXV4PItE5SnQZao5IbW3oRyQj+6cwVKI8Fe14gXhhF68CkNfQiBzWBmBEgkAgOWdPpZ0ycniOxYqX5wNhF6adnhCt9c0YrHi5ecAXhZZLXg8iMdVM3P0eixUvv/cAL3Mm5klnIgiEkPKYF72G9ZrrMScp9GNV3U3Bipe7RpUexWt042KAGKNBCPhjNQhgRG6mYsXLBp9Ig3BqK6fVTiN0Bl+5hTTGr6rL7+Zh1ZS/92dHK7fltT4AE+2qH2eD1ZRjcFdtNy7ZrprPRN084TeKAAYYp8VGJ0WTxbtetsjfuGpK4/wmHs1iI0ZhWmugvbscrWO5yjvSR8kIa2DM2hCyBuqTfCHt9HsqsK6uftbo3NrpwmglBKuR9fW50QJEIm5qK3NXHbCCgmtDVkeA9fPH7d3Hx9PdzT8RcJWCl1teF3nht4KOsbiqQCDgRDTygBMigA44f/g7//1js+NtLrnWzJt5+AjA+04MXtNOX4GT3hAQk072czlsrZP9wjpt9xocbjerkrJK50Wq1dFL9YIkwdiT/UIKF+tkP48AYmnt9MPd6b8eSetiZUmgPGMYv/10Uz5Jgq+ly7u3hr/Weg9seb3+20m8PhNaurdbd0KWytsNrZz9PZKWg+LtBng0vDnJs/N4u7UvzPqzvJLXOu9GxjoHwuZfnbMir4lW9QQtaefd2JNykSicFbFLXt/VGi9JoPNqOLj2AL8ww5JXKUnHNG4gaPsFAEF1IIg47lzMS9fV11fJy+0H0fHau/Amo7x0NXk900t3Ie3U0dNnakgFr9dI7VgeXyuN1+fX5e1zVV4+COBjk5uLycCLwAdEf6FzoaWJxJXp5LWK9nbTRSJspHnElgwtWdVoXW0X+V9TXmNY2F/LxgHy2u8JLb5MaG2wgVjwrBpeDzc9rw7jjJa745M82/i5vd9jwhRbGv+gsB6yyyyr9tJn1ZP0Lf+wFT0goGH5SHReaA+ory/HSvyY97rdEXrXlkyN4Lg87RS0LN8TndfaqWJQDS1Y89qxT6HL+5fbtgf1CzQaam3vdnAr6w1eWEWLbMHBNWNsAR7gY9DiTTPRyiRaWdYdSgxjK1fHVmboApDUuiHK96ZZ6ID/bQjAqfPqHRpcQ8TOcGJiNG7ol7K6ZerYMnzFBoKhX8NKikJLQbwH+LDsUEgxrVReDwGsmvKDKrwo8MDdqddEfdgm07egvh1VXnHHGgelcdDCWH8J7ZQBUvm5VHj9FwVWi7Bs3Avwc3UetEbvE8GInd4DvAS8/lZDxE75Tfn/+93jZr/brZptbHF8/GaYWt+GxjH7nTfllH1ihA3RsU8czLIoFBSDpB23sxBIsywyzbKA+vCEWwLOq5Sq2Pv9DrcKPBMGVEyriu7v1QO1I+l5IWALtPM1roYbJ4zMSBqZIQIYCJd9yx2xE2Xfurf7VQ9rQ9frH2+U204t+xaleHc/KGL7gZf91vuWYEH7lg7EMtqpPRGvBwKxGr68Sl62pblZwfcvPSmRpNfWa38YsuIStdMQWoCEwZIAt1jtMHGi1fVg1+H1LEmJ/V56UrQcu2opr9Vdtdy4QhE76q7aXuy3A0GzHN68Yrk2+M7oX8UY3Uhe36wXb5B5Rh8RHUQd/gBBIACPCShixxVFAwbFIHub8lr3HPZ8nYuL2KlpN/eq7n/1q/Xibyh1OBFE2hG0sIJHtJAHeORZdWWfOLeva0l/fd9R4/wYe86PC35Qdk0Fr6Kyp2JVmGfVnFXCs+qlPcBt/eGO9tLu8IKZmdHCH59420knLoGIvQX47Lo8tufLQe5e15XdAz9apJmNjx1abG29+oGd1QPc779lRezY/luVrW05La7eaM6OF9lc/d3xyuzV9o0l9N9a2WuD5r/VBsVQGdmi1agMgFFqOoFB2j5WWjr3e00cBDKexuSg8KL1w9W+bAmorclty9jGxfDyAxH2O4XiBPx+p7Yn4JYaI9IRJwDIazFeNlva8bIE10soTmCG3+kpPMDtk7E3phOMzzVy7Elt48Yn1+VrS4FYGyGZ49FirCO1V5CL8gA3T5Jyh7yWMzErrA7th5DMmNg5OGJH8LK1k9BMjDwhk43zzUScvFR2hxK+3d4q0oRvDxTkGyUTY8hstGrniDQ1iOA5agkM3PCITBVDJt6fVDu10SrT5RqprZfvsk+ty1to/ZMwM8sFoDVlVz1jJpo7XSg6KHPMegCtPGlctXdX3RolOp25q2FZE0ExslbpNYAAdzYZoxCDg0GKXbyozcu2Nu/KEY3z8woBMcfHpoDXhsxGi/qjgwANYsgVZOz47INKGrvjO5ePjVc7zexD/f1s7VSSgvrWp9bl/2d2aL4uL0nPrsuPzJFkGxr1XfXKuU90WVzDu+qBl+3JFW0FDUQHBS2uXTSnsETXISN2rRjMewJha681az6yInu2SCfw8yo1XjoBtmwQz6W/cQYvGc1ZkziCBNGcgEis5AFJafXodyt+nfnWRuR2Ky2Xry11nt6Aud1y2BroPClaOpqzsg9Jk2mntu308eSW5sR2eds165WlQYsdrFefwS6fKN/pynXm80TT5DsFnOiyfJxHw9joIC3fqdNbpqkhwyHF5cFSSgLhkILs80RJAPHC0bwAvxHk9pYxeGGdV6xnjtK4CdGc6rB1eOnaZ9V7jSA6T7M6fzkpdFYd8MQa4aV7pmhOWynaagSTM6bbPvhH9Ml1edDHppyKlqrL26bA1l3pXNGcTgfgoLeb4gDcyFDbEf4RJbi7wD7W/d52frS3m8MTOiqac44GwT+/NSIpEI5CIS97SINw5/0EhuwHVRvn9Xy3NIgsU0IAJulbfi/dOH2L5AyITPwgZl79sfoWFNG+yyRaOahvjb5zxQfE7LEFopXXQMA9ywBeY9ACPAN/VJnduLPr8iPHFugv/281c2z9a7/zTfGXP93YSrSrlhnTgf1cF5o4fVdtOyO1sRi2xXWSj03crnqZNREBCmozF/Ppa2KeAS/c0rj7IVap1sRF9C0EBk5c3ZTTtVMCxZDts88QnxiBFpi/5g67dyN+7RQMRX+Jik9cGq3Z+0ROCqY3OBLoy0TsE8HY170V+zpvn2ihZQHBgMQcTE3MwbyJOcRbtawhIgkIrcC46nUlCQZeMmsIK21eTeNqZJu1mnKL1caVWuMQlDVE4xWToQQAAiW3b4mgGEA9asoDGW/fonDkJ+0JRsvrS7zPB04mdSRjtVPiyQfxJaI5BQHYyasPPA6tCkb9FzobWknPfKTGaNvu2nLL5Ll5j5ZPO3UFqx80Xqc58xGZ8ijtM+U1tS6Isal1QYxNrUuy19REkr323E0jxZJUEoAqalN+viIfr1Lyal6xd6d4O6DoxlV24xQC/jyLAWKJs2rFy8/V1TvCYs6qGRCpopQ1HRWxk+CseinttJV27txu/2zC8YnhFOsP9AK002Ro1XACmrb8eAihdQgnSm3fcf5oztH+W1o0JxpkqEN08fLrjfcF8t/KmnXgDc7eZZSDyivef8u3NviAkM4WoxNmx2UO9+c7/fZAywrjslLdOZr6OjZfRAPXpGzedFLmcNR/iIR+p7q8JoH838/3B0aISI6HKkJ2m+tRN9g0oj7C73R6VvrT3ueTORdGpXy//e/u6enu9jaQphiG62vo8h0BjUhVPae0aWY/x30+kKXZ9IENTca55UFvnDYTZ9/1ps1EETyzxOU3w48lGSWJJsBVT29cfL+mRnN6Y8isW0QaBnjm7TShsqGniSFbWDtF/SGyO+VyIri+gi4/NMiVQjgVXOgUaE2aiePu8+kIYNNzstKujDPjqoMzUQatL37zJS6h89OEcNWBxs3vF9I/xAIahBqxgz27xvllQ00NYsRZ9dmiOX23Te4nKOtXVzd7d1p/DS7xZT61Lq+ihdDac5EwXL6vK+a5BUGF6yRoJc6RBFlcB4tPtRml2t80WHFediYAoLSiPrirnp4jaYzFJlGKqxrt7axjjvJtX3cBODjqSsF1lSb/lsNi47cG6laz6NxuKHBS1HyjY8QFsM9HSpiU11CiS7uooj6FNTA/gy5vaoxFxkq23vqME9sDHvI0t24NJI+Dy+D1KXV5Ay1BsHp4+m2Zv36+f2zaaATLXz5K1B8NXinRKnqPhqT5TqO9J2qGyWq32zw+3l835XGzW1UlZqzrgRkdBLm82aNLa1zSfKdDLl15Y5nz/jX9TjTn1W2uO9GM69QGgjbtVYssF8m++9fgHP8WXHh24xy5dPtRmDRPM+CJlWd6xI7qHcV5mbmTdV5y/rK4yUidvEbf9XZe7XS6B3grgUjcZKR94z65Lj8TLYqiVsbdgmgl9nZzeCdDntAjozlbXjGj68bFa563Wya/HK+JfvOaeDWvyaCYTH6ITI6XzlmxJ8A6wXBM1hLkDl5Y8iodvAaChleUqF8ztXFUNs7gxeze+ICYpG9FeOmOvgclKppT8IoR9e9lPt9L98K007HRnB2vCvLGN8ru6+nyE9EiYPCCXjZs8WhOqcunuZszJK/HRnMqjQvCdc0Wuptz5h13q4Rr4iqAseQVlF3XoX5f0H0+C+pbHS8WMA/e/9FOVV6lfzJulkRrkXtfBwINLWif6EXLoQt44VrBvBLc+6rrmYYqB+mZYVXO0DOH+9dUPTNKpwUa1+u0Hrh+OnhBCreXlwpEsmjOU6+JLYFH1N+zJe6rvnh9yxm7zgmYc89IHdLui2unXrTyGrpM74pbuJZCa2TWnzwgEv12PciG6N4n8quZAV6qXQ+E6xZcG4rMv08MA5HWZhy2T1Odl0Hg4gU1DgsC8Oo7FGE8r+zGhYBoYU1m33KffTjkdZ95ePLa0BDYaupvlvnPIy4xmnNh7VTOX2Z4ht1X2aJ+EJ8brWYxeR1cd74xmi2M1thoTr//FnBunjv8Aby5RiLO6CWv3fXLr79vtpvK6b+lnNE7/bdC0ZwzXSycviZDFI3LJ2MuLyN1bdVA0PQ9MmJnGi/Q7zToWzTO79TrxzSMEoBXoQ7mqIgdbzRn0O/0vNGcy2unXyua84uhNSOaMxiLEevba0VzqrM+XcROgmz8wtMZ497nua9hXiOuGkAQIMUe0iABHsVrNIG3cSopMj6E3+8UGCWOaE5vdJDpuz/mFhH3iNTWhum3iPiAEGh9cu30S0VzfjW0grEYaWei/2atqTMxTzoT4VgMKeaShz4uSHBKXioQYzQIAf+X1yCQB4g/2umX0uWda8N5dXlHNOefXbXSuK9isRnVuKm8/g97YKOQxfk+ZQAAAABJRU5ErkJggg==;" vertex="1" parent="KpPTK9KQGnR3QfAC0WlO-1">
          <mxGeometry x="-235" y="896.07" width="71" height="39.39" as="geometry" />
        </mxCell>
      </root>
    </mxGraphModel>
  </diagram>
  <diagram id="_G3ST14dlx6zZ8EE9Lpi" name="Page-3">
    <mxGraphModel dx="2249" dy="762" grid="1" gridSize="10" guides="1" tooltips="1" connect="1" arrows="1" fold="1" page="1" pageScale="1" pageWidth="827" pageHeight="1169" math="0" shadow="0">
      <root>
        <mxCell id="PmWIVXRI8UOth7mFPXQt-0" />
        <mxCell id="PmWIVXRI8UOth7mFPXQt-1" parent="PmWIVXRI8UOth7mFPXQt-0" />
        <mxCell id="PmWIVXRI8UOth7mFPXQt-5" value="" style="rounded=0;whiteSpace=wrap;html=1;direction=west;" parent="PmWIVXRI8UOth7mFPXQt-1" vertex="1">
          <mxGeometry x="-470" y="80" width="318.6721991701245" height="722.3958333333334" as="geometry" />
        </mxCell>
        <mxCell id="PmWIVXRI8UOth7mFPXQt-6" value="" style="rounded=0;whiteSpace=wrap;html=1;" parent="PmWIVXRI8UOth7mFPXQt-1" vertex="1">
          <mxGeometry x="-470" y="610" width="318.67" height="330" as="geometry" />
        </mxCell>
        <mxCell id="PmWIVXRI8UOth7mFPXQt-9" value="" style="line;strokeWidth=2;html=1;" parent="PmWIVXRI8UOth7mFPXQt-1" vertex="1">
          <mxGeometry x="-470" y="208.64583333333334" width="318.6721991701245" height="9.895833333333334" as="geometry" />
        </mxCell>
        <mxCell id="PmWIVXRI8UOth7mFPXQt-15" value="" style="line;strokeWidth=2;html=1;" parent="PmWIVXRI8UOth7mFPXQt-1" vertex="1">
          <mxGeometry x="-468.6721991701245" y="749.9966666666668" width="318.6721991701245" height="9.895833333333334" as="geometry" />
        </mxCell>
        <mxCell id="PmWIVXRI8UOth7mFPXQt-21" value="" style="rounded=1;whiteSpace=wrap;html=1;fontSize=22;" parent="PmWIVXRI8UOth7mFPXQt-1" vertex="1">
          <mxGeometry x="-156.63900414937763" y="515.4166666666667" width="2.9211618257261405" height="59.375" as="geometry" />
        </mxCell>
        <mxCell id="PmWIVXRI8UOth7mFPXQt-36" value="" style="line;strokeWidth=2;html=1;" parent="PmWIVXRI8UOth7mFPXQt-1" vertex="1">
          <mxGeometry x="-470" y="860.1066666666668" width="318.6721991701245" height="9.895833333333334" as="geometry" />
        </mxCell>
        <mxCell id="2CGhmrRgOtT1nbCKIHvR-0" value="" style="rounded=1;whiteSpace=wrap;html=1;strokeWidth=2;fillWeight=4;hachureGap=8;hachureAngle=45;sketch=1;labelBackgroundColor=#ffffff;arcSize=0;fontColor=#FFFF33;fillColor=#E6E6E6;" vertex="1" parent="PmWIVXRI8UOth7mFPXQt-1">
          <mxGeometry x="-469.59" y="80" width="320" height="130" as="geometry" />
        </mxCell>
        <mxCell id="HfW4OTpsXVmlzLiau44i-2" value="" style="endArrow=none;html=1;exitX=1;exitY=0.903;exitDx=0;exitDy=0;exitPerimeter=0;entryX=-0.002;entryY=0.904;entryDx=0;entryDy=0;entryPerimeter=0;" edge="1" parent="PmWIVXRI8UOth7mFPXQt-1">
          <mxGeometry width="50" height="50" relative="1" as="geometry">
            <mxPoint x="-470" y="146.07239583333342" as="sourcePoint" />
            <mxPoint x="-150.69045643153527" y="144.35000000000002" as="targetPoint" />
          </mxGeometry>
        </mxCell>
        <mxCell id="PmWIVXRI8UOth7mFPXQt-23" value="" style="line;strokeWidth=2;html=1;" parent="PmWIVXRI8UOth7mFPXQt-1" vertex="1">
          <mxGeometry x="-441.25328447486123" y="180.25285714285712" width="12.415799967667187" height="2.8571428571428568" as="geometry" />
        </mxCell>
        <mxCell id="PmWIVXRI8UOth7mFPXQt-24" value="" style="line;strokeWidth=2;html=1;" parent="PmWIVXRI8UOth7mFPXQt-1" vertex="1">
          <mxGeometry x="-441.25328447486123" y="171.68142857142857" width="12.415799967667187" height="2.8571428571428568" as="geometry" />
        </mxCell>
        <mxCell id="PmWIVXRI8UOth7mFPXQt-25" value="" style="line;strokeWidth=2;html=1;" parent="PmWIVXRI8UOth7mFPXQt-1" vertex="1">
          <mxGeometry x="-441.25328447486123" y="163.11" width="12.415799967667187" height="2.8571428571428568" as="geometry" />
        </mxCell>
        <mxCell id="HfW4OTpsXVmlzLiau44i-0" value="" style="shape=image;verticalLabelPosition=bottom;labelBackgroundColor=#ffffff;verticalAlign=top;aspect=fixed;imageAspect=0;image=data:image/png,iVBORw0KGgoAAAANSUhEUgAAASAAAACvCAMAAABqzPMLAAAA8FBMVEX+/v7t7e3////90xzs7Oz4+PhSFw/39/fz8/Pw8PD09PT7+/tSFw5CAABEAABJAABLAAA+AABQFA//1xxQEghODgD/2iRNCABHAApOEA5MDA1MBQBEAAf/1yj/1Cv/+vmnkIu0npvp3dvz6ef/1Cr4yy3uwC3CrqtjNjCGZWF3VE/MubfXycZoQDu9jiZdMCrOoCmsfiLarCvFlyecgn6gcR+Qc2/Fs7Hg09LUx8VxTEeTZBt0QhJ0UEy2iCNlMAqCURdVIBnluDVdJglWGwaJWReaah1YJyGZfHqLbWhrNw/JnBg1AAB6Shns49+EVBhnkIagAAAchElEQVR4nO1dC1vaTNNOUiHnhEMCKGqEVBGB2gNVtPZgT2rfpz7//9+8OzMbSNjlpEFpr2e/6/rezmOLw52dwz0zu1E0hS1NV2FtKSgUtlCw4UeaLREK+I8UFFSdPoEEiwQ1LZgoGCQYKJgkWPT30sLWhumjKqSDvjVRSEkUQsGWCAVlotBWWqGttEJbRlohUyIYW2mFttIAbYo+6wRI3TCAHqTPfwA9I0B/iYlpuPQtXCQVSLBRsCVCAQWFBJ0+gQSLBBUFgwQTBVMiGCioJFj0CRumj6ro/625S1H/ziefmz6K+nc617z0USQALeHM1A1zruvTRwbQfzvoP4BWAWgtTlFLO0VFdIpK2ilqWSetmqZh2BujzzgPIqT5BxG4/INEIfH2HGn+xejJ0xdDYfzFUgI9bDMtjL8Y/0n7onVwMGydjwwj+WLPp8+GZdKG0TsLXc/3S77vude3I/jefy1ZXVUhZluta7cUFPlyglJ5cMEQ+lsBWtG56sbFsTdGh6+w/PFe+1vJ6ooKRQduyLeOEwSBg39winW3xzfAMwGU8fbPRRHg9565Dm0a3w1uTm9C1ye8gvIBSwSfVh9y0igkZNXC9VSC8KNCdOchHHX3sjWKIy2K+62BRxC5Q/up9ZkIm0FWVWPooVt2T0bMcOxCoWDbSnQx8JiRFR2388T6pHbiZnAx49wtOmBd5wqAkyw7ajG37TCERtq8Yvtfz8XM+2vAIbxuawwWPQWRdgGBzQmPI7ZPWIptmpYMoKflYk9fKjWGPsMncNpKYXppfZcBVPRaLMPun3c6vVFMJvaMAD35DlLvQ7aBHPdCmdo/iFDHhVB2c3vadD223GBw0NaecAflFA4fQQ4Vs+UzDEpnmrB/EKFuHRAaZ9gBywMGPd1cmz5TZJUWdTJ52lgggYMrEZInj0tXUpvvIZ1MMzqGL+/HthQgu112ik4mv3ZCd4A0bS36LOysLpHaa8JWXJr7bAmmYWGIL9ZPYtEF0RZqFh2HUuwEKQZRCwBahz6bRjWM8zJ962Z4ITUyu+cBNqHvlctl1ysFCJPjdie9+bz0yeygDQHIbIdj71IeRrbopguR5xRLLMO+aMfxqDe85pzN/xgpfwdZNQ3DMGXagULGJfjgYgUNxxu0JZtI6XrubZsZFCxFUy4GLiRHjtfVDEiODO5M10RWOUDcwSvog7iDB8GWCGjzk5ScFOLRkBTi0RADRrvXOej02vgtxtFQAYEpZB2gAwq+Nbhr6WiCr1Y6Z/fp/6poHSSyDKHu5enpoDs8v9eoorhIH8QkUUEQkmjIAUKB+0XOzDKCvkAoLCEocWtQ9jzf88rHB+CEreQX6fjXCn10QI33hx92aROV70RfbU+DprVv6uCJ6vUwCMJ6iX16617RV1HOWiQ8BVk146FHRQv2bQLfHcbmFDmMrqHws3O1X629C3bwb/o3I3lCNF4I/E0IH+ok8Z8lR2fxIn3Sqc8GdFY1ZXTsZ9IX/7RPmdc4PHfhL1TCo+qLF9WjqwZ9V/cgkqdEqaW0/enqY8mHyP8HcTGt3awn1WX+oEPgVBOFtE4Z8Nl9x/BhCO2/8bivPrmXp0RpKwMKEoTNUqkZ8o8P3JNY+3O4mBbX0bqCkudf+x5/4B77DolCZhtoVrHxYe8Frdrb7w0wx2LT6Ym+empFl54XXHaHw7uP41J/6ab9x+wgTRvg/imFw34cx/1hUMJcuFS8SPpZ8XHIwNj+fFjlAL2oHv7LfLUDm+F2kZnZo+FFTN/BGA2LPiSPTt1p2zkDlITD3J00EQivG2sse2GBKL4jThW4QwrC1hk6IP/rGB+29l7525QGDhb5aptKj/hHLT7w8XmEN7G6wEkvJM9ZJ03r0WSVCxYJpmr1MH57t8rkS3S8OhqQx747e7o9NLDdT7UX6VX7+rmBjIv5K2Whr56gpbUHgLdTOtFk+giCwTcfWQYJ1kwhd7JqtrFx0/wYpb4E+w68Mu93NC1ugt/Y+bL3Iruq+z/dCgAZuN0Z9FUOUXSHFWyWaor6CK5j65nJqnHSBP9cz5Yw7GhYDije3EVIMSrfD18Iq/a6vkM+97q/wMyyn45JA/ul2sZzMU4gyr3UDsA8VuuFJfruTUj0iu7bqggQpES7KfoqsNeZCA3gQ/2DzQeo78Jm927p+evIMulLKPGJy2s7DlCMmgQf8NVvXPLV3iBefhPZI/i9QT3SnpisqquRVS1CHhAOyAHZStzv9doKVZxtrZW0mBnFmHZAEzPDlAj8Vfl8eYS0WzAy71zTHkhW1a1ZZNUAYmYsEgok6PMF7Q6TEreNu0YZdV2XkdWbFi/2aKNTyrArpSOZgXEzO/wxpq/m0luo7bFUot5VppSzDEGwFgk6CWsgq0YL43e5g09eaZWbOIgQjIs9SjRAV+2+no0PQ2jvVUhV1n9GS4Z7vaBAhd/xWC60uWTVHCGr8O8QDe0A8iHyOqHXwcxG6ftY4/g5wwGNzew1cl23tbyNKR2IDu6FucFUIx7Agw9vkCooF2XOV/H/uVDsseNrKAhuf96fj8+L2nuI9s3uKqG+DSHA76wVoEftINW4pceOZkFYFAPP8+pU8Ljpa0q3xAxnimLI1uF3cELujHaQfOEvLB0YGwuQce6lzCI6KUFKXO/EoxOPF3taLcwBdl8tMLAX1deQDPnDFTYQ+43QYyud5QhQvmTVbmPtp3SC0ZFFdAxnPfgRHyBzfMwUGz9mRvgxQB/Awsr3q2ygggYGjgDlTVZNtjglLaQFWyIU0kJCVtkfTTMiilGMbaiLjjAn9G919vcMFt39sT/a/iahGFNr7xfLFcPLlTYQAuSUbjUlo5yJy0oLCVkliQRLTQk6FySVwIeRVZASioFjCDbli/VBrCI51KIzYGLorj0pxZC4oNLBCny1kJjYUNtMsmr0cMt45DZYvggOyB+Z5NjY6vkBdpF33yxyQGwdwT/3zlcCyI7hAUBxegFAz9JZxTkoRg4ukWJoHXJAHT3x/AyhEe6wnd8vBYcjuqCvkG96Fyu5IBut2uvJAHp+smp1wf8GPlIMmwrOLF9MdjFw7BOqcQgU4+i94LOrX73VAVIOwM+V2w/cQfPIKgGkpX0Q56eikJDVLEAWxe8yGUV0HGIFNOJnI7CZ2iITFCjG/q9PwhZ6GED4BLxoGqCtNECJPoKAAG1NAUQfrBu4JEJBIuiiYBs6j1k0B6XdUj40UhgFhGUxVj8qF6U1jtr78pFoYkdhBdzJSj5IuYTHUj/RbImmY0o6X8iikF8epJxCjyI8Rgek9JBieAfWhA+qcRGLrL+mKUb1dfm3JCt6+Y0B1LxbKcwr+Fwc98BYI1l9mK1qZz4WyTjFqMMUT/PESLkvHV1UpT7tgNhW4a3DqX31ZQcKqNFCVCZLL1DZ1SmPNo1qGLRlEorxseng2Ko50QGrIE5x9920ge1f7cgq0y+qn6Bk5vZWsDEdyq51MrL1AfSQfMGkVnmpSxSD8kW3Z0x0UEYe1jg+iA6oMaPyegSTZeFgtVTaJk3KfW2jdpCBzy24ianeQyXpoZ4KgBTV0m3UxAG5s4j93tU2wrwi2Wh5kL9f5gVQLk6a5jAdt48UI74Bd83yxbSHHEraqOiAgorYG+M/e7cLqXi4Ur0DEwzINkY5kVXsONg6cTYSChKhQJJE0G0bxuFhyxxQkZX8pNfW8cORD+rn0jYqC1VXO5XGLGL2EugqIL1aLoQVl2ZXJ+VAhYSsjvUBsioKFmeuaUgWkdVMoignqwqMQYFKnGJQNuh2jEliBo1WaRuVOSBGPGZVPqpvsT3mf1ylw8q20GmAD8ic4VvnJ4proBoaUQwyBRtK0g6jGFbKl5lJG1V0QEVnd3btvvYTAplTOh0tnIZJb6EW0Fy/ZWzKGDDFb2qj2pxinMapaMhHxYU2avWQJcvbs5tjmAJgHdK7vddolIFZwiKA7BiaAuHA2oxDvYUY4qrj33KKQT2xvjl5YkaPIrwQzPd+s6+/O7c0dPiNTy763fN2pChwEnHGZpr8Z+0OynbeyMyzsyrxQfPJagKQgvFpQjHQAbWsyRMzqAqyfTVd46i92ZX5pWR3/a+K/0MDwsxXe75zenzd9P6RRzXlYgIVzOYzGzPzIKs8ihEzywgUqwoSQU8LyLCcMrVRo9MQ88UIKSB9XNQtObI2avUt0nV5DlQ9+kx/v3r4hQYZwM0F4Ou9jibJjOz2SWJ7jHDANq6fFLimnLlaEsEShSwKj8+DLiCAl6iIaPeBcARONM472MamRqs7Tbeqh99ZEN8RMmuOz/fEIKt7n7xGpThZwaA1jAWAopvbCWxw/oXBGW1EZxVKVA72HnSoV7EcmuW+E19m9l05xdgDLlrxxToH4vOtOaFntcP3pcbOBKPAL3emPbV2Vk5Vr3mDdbQRnVVwiMEpKafclopOcKxOFDLjU6IY0zWO2iewnIa0OM0cz+6b9IarHb77XW/Q2sYgOcXxlU7ZS4FG5Uy/tRFc7JIl9nXeHgaAGFrxZAcZdzMoxluv4jjb32Tt5+rhZ4HfV2uHb9+9ef/+zavfgJCX3ULQcc7UHhUnwFpS+srT59pBUMNLyloKHq4EL8oVMrByL7ZR2R6B71mW5oiHVzsNsQT7ooqr9hayruDaSIcyFhscLz0DQk7odCPIKgychAN6oPaojDQMzwQwp2iOcFJTbKPu/YDgvfOvzMD2vzTmDTbssdzRSQoriQNiqTP1CpIdhE/KjzP89HnIqj4swYllHlZgShDyxJN7HchhdFmHCC+0UauvwAFVmrIBKoZdZQ77YMbp4kM4G1NYrQMT2GE6stkstjrM6jJqJ2Ge+KlEsNJfPC+yamLASHyC3ceY7pSK55ZqUeGsIrRRq1+bFTQ8GT7vd+fQV1i1Dw0HD3RwCqvAWFkxuEl7Jfu+jF7afn6yqt5DUhZcR8neTgZ9b2PKiiRt1EMsY0hzaAxuM5LH8T9H/+WUrs8jhZ+Mmlh5YmMeZmf2asFHXQNAWwr4Q/AJNg+4Ph8FGvSRYoht1L0PjeKMFKjG6P3C0TMosuFD8D72IqWP+IwDaWJ2YOv1kxUBWgtZtUdoVd4d9wnjefoQLyYR26hQKITqvWRAqPrVr0iqIuJfC3fw5HPduz7FW6ucJJef+G1IOI6jvDurGR+0HFnVNTyU4vin/PTJeJ6e5jim/S01BFkEEw2MEQxmPNIeEP347fhPvxo01Bckx+r87BiIcsAIoHNt5kZWJf67IEYxMaQZpm4bOOaSOn2i9YIS11s0FyrxSLfJ/q+dOcPTtXcTbw8HOrZT/AxSiyxAHYzz90oqVmWiWMJPxShmpFHIpbNqjkJEKBVY4hOc/S1uC21UKLIyvib253lyVPHkw9MMkn/SFe3a2190tIwvL9s/sy+IjanPT1Yt9g9G1yU8z1Zy6PIE3dbwPg4pxcCNJemEzWNnLPW+KmejXvXlq++0iRAlt589N4OeEet2z83FLKSkXSy7JpcnYHNK5oipxgHHnEUIXsOJ1Rk5NKP3jWA66lX3sXGGHf+il502t9uQYnjn6wBo1c4q/lnvlOkEBs7TM8qBNY4fQo3jX3RA4axhjlnHf97ubIvZdZUGzf1LamJkAYpBA69lbMYOYp+g3VN0d+puR6PCojipWUOKIXVA6KBnHP+psc01Ofo7Xkc4R13qgj92mlM1tOgfTKUfD1AOThoXc2dDl6J7+QxrHOKkJs1ESScU97DBU5GWP1j4qmx/FuYbXkLJn9lX1PIdJwinKkQRjtwfGM9OVnnzkglG4bzYRISaTTkO+5+3pdweMHClkOLPXrkVyU+w5A+te3sIOWFxqsYYQUXIP9AeGebnktVlE0X8RyAY7RNvHHglbVTcJTu/xAyIs1epgSE+YmyDihtAemsYVKWbBghSSL+1eqK41hOHZtTit2cyRyzUOF5DYNkWJzhZbEMHJCZNhA9EPWEsFhgrDWEbWJGaHjiPbmhg+uHBZx0AMWFEZ8Ekh8GgjVqslCRWlLBXCYkH/+NUhAhPSaUT1EemasDgZngyBZCCE+W3G0BWp86sav0ZmSC2USuyAIbsVTb6QfGL/UT4Rzwcuh320C0o+tanD00lI/ePBuixBbNpgHC0QjKpST5VBkLCXr8IZsQcDWP3kpYRsH4IUmdgFAZA0Zy+ZBAnTvAA9CMLZvlFMRT4hTdCMRULGSywSYhowl4lyePXUJ5cUzgMTyOISIXToDhd7UicNI9ikpKrrP6aKbkmw0L55UGYNcxso0IVcFecpx+Ha4ntMX6xDVYpuKYa+izH65OmcoAcfrJumTzo6c6stvmkphDh4Svt/pTgM5u9Mn4KZTHRKslnOYxHoD4aZTzTYb5MieIjfWu+Jw4nk5qyryQhC2ztf5vFXnlr6IuAz1EJKcaJoU4AEo5NEUBr4WIPPdTL/o/Oqwo2UT2qV4q7UnwoeRSnyxPTqwRCWrl3tYNtgrapzt5BjKyCJp2N2kEaDZOLNgFumOEjoRHU5GIOSDSw1/KpNKy44TlPQ50HENaDvN7jyx05OmkcNZMUm9leqEj9c3KwWeaAjmaQD+6zvKE11kcKEFUU++ZSFcVlyCoMC40jOwqFBYJNQhLmDf2ySTUOyZyCK4vv3MCcnd+CA6oeYiCXHHwhSOuXylgfHtCzACk4ZOa1eU0aNZ09QDUO8+kBKhLyI6tmR07IYVbDfyXFp/q2LC0bEflwZJd74FRRMfDjiT6GbAdhc94J7x/f1VAEgB5INQwccBdp996H3fCtvBOIEazii+yMMwmxdUZ1a37LFNfHkgGkYQ3kejPGgOk34SjethCuGYf/NeOSF3K3kgZi9SuWMsTCEeXjjn9mpfSxbiSJIh86kfbmVwk++QGEVZmicKqgeuT/mNEoxfqiI6sB7WPvviJ6M/JM4XGsLgQI/mO9m0PrOS+yajLK6IgVner7V7LwDgsGfYqNL2KGSDtLUkSksojjjsy0PtYgFE8mRjjdMcxhuiMnsqpgYtZ4I4DxclafHf2MzEHTnR2Sim0NT/8U3ZaeUUH/iHMKGYAoDfI7dlrT1eaDciarKvahGnOvTMrCAPFalkG/OPyG1Q9hKIQPdfjdaX1gjHTq3B1GeWgFpfnpw4r2tPseTTVMylyXuHEi2Q7MXMTRqhcJVZdUP6gsElzDxEZaHwpYmfmpAg4nB0FUeKxvzY1qEEDuwjuBxtsB4lFZOL9KB4CklUds6ifHdTMA4aR2tu2Do6VsV23CGHAaoOVNDAqw0hs8ZpEPzs28A0EfrQPT69nXckRwKJRFto0BaEvFVq9sele6wBHLy2c/YZ+I1Q+iGE7zMhIB4oMcE4B0Gwvj3vlGjAEnZLUeyKeipGv/87b0iiVi93RFeWZxihG2LVEfrNJlxl/Q6orefR5nNeiU2viAjyAUJIIuCEyC1LXSlB69EPfJp0ZDUqPHS5UcScU2qcuWe5qojxXj4ac019COA4f57UKiXMJPUbAWCEYGktzIKo0DL7z6j/bJ4ffG1b6sPIQcTPyQcY1Dk+mDqXT6sjw6qlG6NfI4L6YIAD2Maqh4DrIoYZ6SDfSmfCXlH9hblKTjlBrVB4om0wdbq8HNJIxxC+utfOJQFYJPnmyeTsZ/m3P96BgH/0p6hRlG8oovOiCsTgd+W5PqYxAekwEhbDsHxXizLlgy7+t48vLzQoRqb+T4MGILFENIjsZtVE2uj9mnw0/JVT9ULCudrX6oV7aD8iKr45M928G7BaHs8Iv8Crzajx1pG/XIR4pxhndYSfRR4QSmE35MnJCCd4G6Fzmdm0eqmSarymKyqqTJKn0CkEF6V2pl98P8SfAjOT7oicWDL5M2Kuoq04feQJbYGN28EF7qGeXM8c0LJCy6eUFZR2dV4ddtNj7PKCHOXZjqSNqodLmAN7Jm6qN34D6TEh1a5dej0u2WOdzdQbsvr8bhHV03vu3Ji/TzFt5DIZYXiZs5bmuOPlbsw31OHtytYsP1qMjDtDx8a963AUcHfIBq98sS0Sy7U9gGkmTi0HOESU1tnj4Ux4LrkabF6SuoNoeLUeOQ6WBd3NCFpDuh2Aycv4G8itgygtth8N1A8RyAFEOlllzgn3SdJrzehHl0IfhsAkCajjPloKJT8X7KkuVZa+/HjqQ8VHuDDgjuk5qrj9Ghe6vrmGoU68dxfgDl6KTRKcJNAmhmlcavo+U3EcuBxPIHnY2GGscifTCCJgOk9WJbHevzWLLKkyvJDYI8q5AIknsU04J2PyAz2/Zf1ZbcRCyJlryk5fA7DJLVB9FifZS7Mj8Z5XinsZJVbtHViTJBQla3HnUT59bYVNnzpZlyp7I7q+czvQ6/74gOaO9fnOPw8LrcBfpoWsf3mmHY9MoHYOwpfR5BVrfW9OIR0+oFTfLV35dKiarvdiUOCNuoTvncWEofLe7cDQbdVowBPqMPOdpNGAMeK8Rnyh2HpURL+Oq932VxkOxrQjHU5fRRTXgThi3V56HBZ33vWTUtfkd7ZfdqcUp0VBYzoMPPUDwLT6UqzLnwKWeAFpDV5W8kFxSykndA7oSL6Gv1jXgXJ2+jltur6aMu967nFW8kz+dOeyakr41XC9GZCwefixX353xfvfdLcEB8upxRjNz0Gb+ADYTxC9hAkN1pnwh5ktXpvEO1OmHdIfr6da6vFoyQT5eXuoaanz7PTlZFX2aMLtFXs5To00r0NWmj3pu56rOyb13ja0TpXYmmOvbV/y6ZEsHiAx7uhZHvA8sFoAflC7MVMvo3WM5nKdHS9HXcRrXy12eTdhD/SdTF24GLFe/9zGGYLD50GrV5Yq5Dn+cmqzKn2OFVosbVUvSVt1GD2FyHPg8jq5IXiWeE5d+gLhPscUpUf7eYvnKK4Z7b69Jn/hvUM8JS7zicFha841B8p6BqxmdEthdW9McjnP6ttTZ9tma945B2IjdVFMjO1kA1Et8BlUD4mX3hEX1tfJtPX/n9bzCpuQ59NoWsCtHH0OKPdCS6Mr+iX8M2qgOvBFqnPs9OVsUnpmktfn3F7u/Z9DVpo7bgnZ5PvYOWAygvsiqQQ00bJSlR8HqGr64eeUQxrPXro6xEVlNSHm8LFwQkh9A4I1/tvZdXiZI2amw+hT6L3xaurpWspgWb/5tzugOu2Pglo6/URi16/SfS5+nGgJfOXLX7S/LV2744g09tVEYxlCfTJ2OqimCqT0E1phTSogMys6JQ0eej4oxi6E+nz2YBBL5D0/rXJVlKVPuK11MFxbb5hA9sLQCpD1cIk8eY3xKz7b0/TCCqvnxVxxu33J7xhPosBmjtTlpCDjWTuq8O20Sfjvb39vb2j179oovZvSFOhj2pPnPJqs7WmKbpuDi3WyAUFgoFUUh+kcLoK+XVDf/bly9fPvtw1TjMO59FhWfQZyYKCr68Mgekt1bdidFt0iuubO8kN9Y77llOT35lfeQ78SmpxpSgaT2vNLkoEgZCivXyAV5m/hz6PDdZlSkUd8tw42qCT718OTJycq5/IlkVBMWyRme+65fq9XrJ97zuhZXbe+L/OLI6QyHTMC8Oht1u97Z1EVumNDw/pT4SgLhC6kMVyrR61cwTs9I6JC/6ySiEf+aOlCjp1rPrk71h9KnJ6mJyuGn6PD0XSz95ZRnT2Diq8azsOS/f8aeS1b9iB/0HUBagtTvFZ6EI+ZHVRRTw8YK+QFjPb81JH135W598Tvo8K9VYZ6HrTyCrf4Wzf142/wfkU3IuRsLM0X91Se4z1ZsnHTIKqWmF1DRAm6KP+n/ymWbmEZxHuQAAAABJRU5ErkJggg==;" vertex="1" parent="PmWIVXRI8UOth7mFPXQt-1">
          <mxGeometry x="-452" y="90" width="77.32" height="46.98" as="geometry" />
        </mxCell>
        <mxCell id="HfW4OTpsXVmlzLiau44i-1" value="" style="shape=image;verticalLabelPosition=bottom;labelBackgroundColor=#ffffff;verticalAlign=top;aspect=fixed;imageAspect=0;image=data:image/png,iVBORw0KGgoAAAANSUhEUgAAAS0AAACnCAMAAABzYfrWAAAAilBMVEX///8AAADm5ubl5eXk5OTj4+P09PTx8fH4+Pju7u719fX7+/vq6uq8vLy2traUlJR4eHjc3NzT09PFxcVCQkJqamqAgICwsLCWlpbAwMBxcXGenp4YGBiIiIhXV1cjIyM1NTVgYGDNzc2lpaVJSUk7OzsgICASEhItLS1OTk6NjY0UFBRcXFxtbW0d8LUhAAASXklEQVR4nO1da3vjqA6mtgPGJmkubdNOt93pZWZnenb//987xtiYi7jYxknaZ/hSnsay4DUIISSBEC9FlmWMV8o8y3LKa5jXMK9RXit5jTWPFZIg45W66Akq/hjhNQIQ8OdzgBeRvKqeV1HbvFqCOtd4YRevXG2cyYsAvDKbFwwE+oPWH7SWRisXDxUwWl0P8mi0ilIn0NBSeI1Cq4DRMnlJtBRe8Wj5gECyL+IhXhMP8Zp4iNfk58t0gloSVLwmGiQJWlLZoEwSDLyI5FXpBACvUueFdV7MwYvqvMhYXioQqGiKwGzV1MSTTW0lXs1roi3Njyvx5WRNIyjEqzmBaAt/TDReIxDdkAQVJ8AuXrxxhbdxXl7MxaslMHitYoAYPoRXAunDFpJAw7CV4zwfO6cgCeSUdtCcipR2kaK4tIC4eLQygNc50crNh4rMktcKWnlAJBZmDzQC88sUXnmdZ7lzbSAAL6BxEC8K8AIaZwPBeKmbUvIK5bWK1wivEV6reI3yWslrkqAGCDCvYUlaSlKdYOBlELh4xTbOxSuycSFeLayQSMS6SBSjJCSvC/EhABnqkNeCYMbaMEJeK40bszaoQKB+FP7RTiOA+IPWBLTyvJehTU081NSK7qGm1snrptYSrJpa16CeoOIEXYOaWqkT5LKm8yKSV+XiJQkMXtjFiz+Wu3gRgFezlOQrFy8VCFTyQnnhlYpXCK9hXsO8Rnit0h5zEhCdgNgE6XiFCUpJMJCSObz4R+9laFMTC+dKjpIG116G9vDn8kPwx5gkGD5EJ0Obx2qddGXzqlbN3qAlaBcgpBMU6mBWeJmjRPLKCqtxCq9hlAD9WskR6eB1Abp88zUrsns9PByv7++vH9eHV4qaj8gEh0vUTs+IVvnwdPvXlVluP9bZZaKV2/K6LLTBbsjQTBP1UoZaM1GT18Ng7xvESHW4+2UBJcv3uwPvizI7FF4R8nqlymtoJg79GmZ9EAjCS9UUrNcwrxFXDSDwk1Z6rSTrWzdScoxtaInn8krSr+4xZHwIXV4PItE5SnQZao5IbW3oRyQj+6cwVKI8Fe14gXhhF68CkNfQiBzWBmBEgkAgOWdPpZ0ycniOxYqX5wNhF6adnhCt9c0YrHi5ecAXhZZLXg8iMdVM3P0eixUvv/cAL3Mm5klnIgiEkPKYF72G9ZrrMScp9GNV3U3Bipe7RpUexWt042KAGKNBCPhjNQhgRG6mYsXLBp9Ig3BqK6fVTiN0Bl+5hTTGr6rL7+Zh1ZS/92dHK7fltT4AE+2qH2eD1ZRjcFdtNy7ZrprPRN084TeKAAYYp8VGJ0WTxbtetsjfuGpK4/wmHs1iI0ZhWmugvbscrWO5yjvSR8kIa2DM2hCyBuqTfCHt9HsqsK6uftbo3NrpwmglBKuR9fW50QJEIm5qK3NXHbCCgmtDVkeA9fPH7d3Hx9PdzT8RcJWCl1teF3nht4KOsbiqQCDgRDTygBMigA44f/g7//1js+NtLrnWzJt5+AjA+04MXtNOX4GT3hAQk072czlsrZP9wjpt9xocbjerkrJK50Wq1dFL9YIkwdiT/UIKF+tkP48AYmnt9MPd6b8eSetiZUmgPGMYv/10Uz5Jgq+ly7u3hr/Weg9seb3+20m8PhNaurdbd0KWytsNrZz9PZKWg+LtBng0vDnJs/N4u7UvzPqzvJLXOu9GxjoHwuZfnbMir4lW9QQtaefd2JNykSicFbFLXt/VGi9JoPNqOLj2AL8ww5JXKUnHNG4gaPsFAEF1IIg47lzMS9fV11fJy+0H0fHau/Amo7x0NXk900t3Ie3U0dNnakgFr9dI7VgeXyuN1+fX5e1zVV4+COBjk5uLycCLwAdEf6FzoaWJxJXp5LWK9nbTRSJspHnElgwtWdVoXW0X+V9TXmNY2F/LxgHy2u8JLb5MaG2wgVjwrBpeDzc9rw7jjJa745M82/i5vd9jwhRbGv+gsB6yyyyr9tJn1ZP0Lf+wFT0goGH5SHReaA+ory/HSvyY97rdEXrXlkyN4Lg87RS0LN8TndfaqWJQDS1Y89qxT6HL+5fbtgf1CzQaam3vdnAr6w1eWEWLbMHBNWNsAR7gY9DiTTPRyiRaWdYdSgxjK1fHVmboApDUuiHK96ZZ6ID/bQjAqfPqHRpcQ8TOcGJiNG7ol7K6ZerYMnzFBoKhX8NKikJLQbwH+LDsUEgxrVReDwGsmvKDKrwo8MDdqddEfdgm07egvh1VXnHHGgelcdDCWH8J7ZQBUvm5VHj9FwVWi7Bs3Avwc3UetEbvE8GInd4DvAS8/lZDxE75Tfn/+93jZr/brZptbHF8/GaYWt+GxjH7nTfllH1ihA3RsU8czLIoFBSDpB23sxBIsywyzbKA+vCEWwLOq5Sq2Pv9DrcKPBMGVEyriu7v1QO1I+l5IWALtPM1roYbJ4zMSBqZIQIYCJd9yx2xE2Xfurf7VQ9rQ9frH2+U204t+xaleHc/KGL7gZf91vuWYEH7lg7EMtqpPRGvBwKxGr68Sl62pblZwfcvPSmRpNfWa38YsuIStdMQWoCEwZIAt1jtMHGi1fVg1+H1LEmJ/V56UrQcu2opr9Vdtdy4QhE76q7aXuy3A0GzHN68Yrk2+M7oX8UY3Uhe36wXb5B5Rh8RHUQd/gBBIACPCShixxVFAwbFIHub8lr3HPZ8nYuL2KlpN/eq7n/1q/Xibyh1OBFE2hG0sIJHtJAHeORZdWWfOLeva0l/fd9R4/wYe86PC35Qdk0Fr6Kyp2JVmGfVnFXCs+qlPcBt/eGO9tLu8IKZmdHCH59420knLoGIvQX47Lo8tufLQe5e15XdAz9apJmNjx1abG29+oGd1QPc779lRezY/luVrW05La7eaM6OF9lc/d3xyuzV9o0l9N9a2WuD5r/VBsVQGdmi1agMgFFqOoFB2j5WWjr3e00cBDKexuSg8KL1w9W+bAmorclty9jGxfDyAxH2O4XiBPx+p7Yn4JYaI9IRJwDIazFeNlva8bIE10soTmCG3+kpPMDtk7E3phOMzzVy7Elt48Yn1+VrS4FYGyGZ49FirCO1V5CL8gA3T5Jyh7yWMzErrA7th5DMmNg5OGJH8LK1k9BMjDwhk43zzUScvFR2hxK+3d4q0oRvDxTkGyUTY8hstGrniDQ1iOA5agkM3PCITBVDJt6fVDu10SrT5RqprZfvsk+ty1to/ZMwM8sFoDVlVz1jJpo7XSg6KHPMegCtPGlctXdX3RolOp25q2FZE0ExslbpNYAAdzYZoxCDg0GKXbyozcu2Nu/KEY3z8woBMcfHpoDXhsxGi/qjgwANYsgVZOz47INKGrvjO5ePjVc7zexD/f1s7VSSgvrWp9bl/2d2aL4uL0nPrsuPzJFkGxr1XfXKuU90WVzDu+qBl+3JFW0FDUQHBS2uXTSnsETXISN2rRjMewJha681az6yInu2SCfw8yo1XjoBtmwQz6W/cQYvGc1ZkziCBNGcgEis5AFJafXodyt+nfnWRuR2Ky2Xry11nt6Aud1y2BroPClaOpqzsg9Jk2mntu308eSW5sR2eds165WlQYsdrFefwS6fKN/pynXm80TT5DsFnOiyfJxHw9joIC3fqdNbpqkhwyHF5cFSSgLhkILs80RJAPHC0bwAvxHk9pYxeGGdV6xnjtK4CdGc6rB1eOnaZ9V7jSA6T7M6fzkpdFYd8MQa4aV7pmhOWynaagSTM6bbPvhH9Ml1edDHppyKlqrL26bA1l3pXNGcTgfgoLeb4gDcyFDbEf4RJbi7wD7W/d52frS3m8MTOiqac44GwT+/NSIpEI5CIS97SINw5/0EhuwHVRvn9Xy3NIgsU0IAJulbfi/dOH2L5AyITPwgZl79sfoWFNG+yyRaOahvjb5zxQfE7LEFopXXQMA9ywBeY9ACPAN/VJnduLPr8iPHFugv/281c2z9a7/zTfGXP93YSrSrlhnTgf1cF5o4fVdtOyO1sRi2xXWSj03crnqZNREBCmozF/Ppa2KeAS/c0rj7IVap1sRF9C0EBk5c3ZTTtVMCxZDts88QnxiBFpi/5g67dyN+7RQMRX+Jik9cGq3Z+0ROCqY3OBLoy0TsE8HY170V+zpvn2ihZQHBgMQcTE3MwbyJOcRbtawhIgkIrcC46nUlCQZeMmsIK21eTeNqZJu1mnKL1caVWuMQlDVE4xWToQQAAiW3b4mgGEA9asoDGW/fonDkJ+0JRsvrS7zPB04mdSRjtVPiyQfxJaI5BQHYyasPPA6tCkb9FzobWknPfKTGaNvu2nLL5Ll5j5ZPO3UFqx80Xqc58xGZ8ijtM+U1tS6Isal1QYxNrUuy19REkr323E0jxZJUEoAqalN+viIfr1Lyal6xd6d4O6DoxlV24xQC/jyLAWKJs2rFy8/V1TvCYs6qGRCpopQ1HRWxk+CseinttJV27txu/2zC8YnhFOsP9AK002Ro1XACmrb8eAihdQgnSm3fcf5oztH+W1o0JxpkqEN08fLrjfcF8t/KmnXgDc7eZZSDyivef8u3NviAkM4WoxNmx2UO9+c7/fZAywrjslLdOZr6OjZfRAPXpGzedFLmcNR/iIR+p7q8JoH838/3B0aISI6HKkJ2m+tRN9g0oj7C73R6VvrT3ueTORdGpXy//e/u6enu9jaQphiG62vo8h0BjUhVPae0aWY/x30+kKXZ9IENTca55UFvnDYTZ9/1ps1EETyzxOU3w48lGSWJJsBVT29cfL+mRnN6Y8isW0QaBnjm7TShsqGniSFbWDtF/SGyO+VyIri+gi4/NMiVQjgVXOgUaE2aiePu8+kIYNNzstKujDPjqoMzUQatL37zJS6h89OEcNWBxs3vF9I/xAIahBqxgz27xvllQ00NYsRZ9dmiOX23Te4nKOtXVzd7d1p/DS7xZT61Lq+ihdDac5EwXL6vK+a5BUGF6yRoJc6RBFlcB4tPtRml2t80WHFediYAoLSiPrirnp4jaYzFJlGKqxrt7axjjvJtX3cBODjqSsF1lSb/lsNi47cG6laz6NxuKHBS1HyjY8QFsM9HSpiU11CiS7uooj6FNTA/gy5vaoxFxkq23vqME9sDHvI0t24NJI+Dy+D1KXV5Ay1BsHp4+m2Zv36+f2zaaATLXz5K1B8NXinRKnqPhqT5TqO9J2qGyWq32zw+3l835XGzW1UlZqzrgRkdBLm82aNLa1zSfKdDLl15Y5nz/jX9TjTn1W2uO9GM69QGgjbtVYssF8m++9fgHP8WXHh24xy5dPtRmDRPM+CJlWd6xI7qHcV5mbmTdV5y/rK4yUidvEbf9XZe7XS6B3grgUjcZKR94z65Lj8TLYqiVsbdgmgl9nZzeCdDntAjozlbXjGj68bFa563Wya/HK+JfvOaeDWvyaCYTH6ITI6XzlmxJ8A6wXBM1hLkDl5Y8iodvAaChleUqF8ztXFUNs7gxeze+ICYpG9FeOmOvgclKppT8IoR9e9lPt9L98K007HRnB2vCvLGN8ru6+nyE9EiYPCCXjZs8WhOqcunuZszJK/HRnMqjQvCdc0Wuptz5h13q4Rr4iqAseQVlF3XoX5f0H0+C+pbHS8WMA/e/9FOVV6lfzJulkRrkXtfBwINLWif6EXLoQt44VrBvBLc+6rrmYYqB+mZYVXO0DOH+9dUPTNKpwUa1+u0Hrh+OnhBCreXlwpEsmjOU6+JLYFH1N+zJe6rvnh9yxm7zgmYc89IHdLui2unXrTyGrpM74pbuJZCa2TWnzwgEv12PciG6N4n8quZAV6qXQ+E6xZcG4rMv08MA5HWZhy2T1Odl0Hg4gU1DgsC8Oo7FGE8r+zGhYBoYU1m33KffTjkdZ95ePLa0BDYaupvlvnPIy4xmnNh7VTOX2Z4ht1X2aJ+EJ8brWYxeR1cd74xmi2M1thoTr//FnBunjv8Aby5RiLO6CWv3fXLr79vtpvK6b+lnNE7/bdC0ZwzXSycviZDFI3LJ2MuLyN1bdVA0PQ9MmJnGi/Q7zToWzTO79TrxzSMEoBXoQ7mqIgdbzRn0O/0vNGcy2unXyua84uhNSOaMxiLEevba0VzqrM+XcROgmz8wtMZ497nua9hXiOuGkAQIMUe0iABHsVrNIG3cSopMj6E3+8UGCWOaE5vdJDpuz/mFhH3iNTWhum3iPiAEGh9cu30S0VzfjW0grEYaWei/2atqTMxTzoT4VgMKeaShz4uSHBKXioQYzQIAf+X1yCQB4g/2umX0uWda8N5dXlHNOefXbXSuK9isRnVuKm8/g97YKOQxfk+ZQAAAABJRU5ErkJggg==;" vertex="1" parent="PmWIVXRI8UOth7mFPXQt-1">
          <mxGeometry x="-343.59999999999997" y="92.40999999999998" width="71" height="39.39" as="geometry" />
        </mxCell>
        <mxCell id="5d8GSXXjQ34AS4jucjdZ-0" value="" style="shape=image;verticalLabelPosition=bottom;labelBackgroundColor=#ffffff;verticalAlign=top;aspect=fixed;imageAspect=0;image=data:image/png,iVBORw0KGgoAAAANSUhEUgAAAOEAAADhCAMAAAAJbSJIAAAAhFBMVEX///8AAAATExNcXFzn5+fAwMBwcHBHR0fd3d3V1dX8/Pzz8/M6OjpDQ0Otra2FhYXv7+8uLi7Kysq3t7d7e3vj4+OdnZ2ysrKLi4tiYmLHx8fX19ccHBybm5uqqqokJCRRUVE0NDSKiopsbGwoKCiAgIAXFxcNDQ0eHh5WVlaTk5NgYGDDl8T0AAAJb0lEQVR4nO2daVvqPBCGBVlbFxYRQUFwQ/H//7/z8h6P5knTZibNJK1X7o9K2jxtJ8tkMjk7SyQSiUQikUgkEglP5P0rK/NR7Fq6Mxl0SLzNY9fUkcU7TeB/vMauqxt7ssBO5zZ2ZV24YgjsHPLY1XVgx1HYWcaurgMHlsJB7Oo6wFPYiV1dBy55ClvYK97yFG5j15dPzlP4Ebu+DsxYCrtZ7Po6MBpyJI5jV9eJ+9vrCp4eVIWb2JWV4FlVeB67NhLMVYWHSezqCLD4BYZoAcY9x9i1keBGVbiLXRsJwBA7bZxB2cBxTz92dSS4UBXexa6NBE+qwsfYtZFgDZ/pb+wRJ7/fEMGbcxO7NhLcqQr3sWsjAU4iF7GrI0AOA7e2uvcrgVlyG32KVsBhNW2jK8PG+Ncb4hkobKFP0c4nSOy2gLfhhjX62nbaCOdjW9gv10QYK54Zfam4UfToEomr/U3jia6QtVjcHKZ0hS01RM6K54X9ag2E45FopyGuGArn9ss1EE6P2ItdWSdYy/KPsWvrAG9F9zp2dR145gg860PZUY/OSC24XxBKTKDlnjHuhcbEmwVlUJbjU4RlgQtSEYiC4cxHcSbLjI6Bu14zCqJCkmlcutZzA98L0xsBPsUHRsGQCsG1yzND3afIWGULqHDyphbkegVxlY1ROqDCmp7dc7U0w6cYUCFY0ju93BdHtfgLvVxAhTVXWFxb4nAKnQ3pX3kIj6IHDIdTiKMSh5CDD7U8vSkOpxBWq10WydC5T35E4RS+qMUYPppvHJ37wRSiGa6pxVTgCmRnZDCFHiJ/VuoVyIYYTKGH6C107lNLBVMIZugW+IOzL2qcYiiFI6faaYArg2qIoRQu1UJvjnE/8KUPiYVCzYAhmnlHLKQDj6mz7pOAJm5KKbHeq0W2tNv0py4fmE57fIrOwcytce67CkRDbDDuu3v69os3AvdoirYYYo2ImH3supM4uAvEKVhjqROZ1g5DvKqhMLNfvgEwYjCKtKFHpA1+yzjabxCdegGivF2ncagXbY/OkOHADoz53wgFBgPwW64IBTB1Qs34ULZzHxon2uwJgpIpzQbYDiNOyAgs0XUJBULMgOEd1s3Ccg8fxL29QACFfje95ODKIAxxAyjEcUjtQHQwRELUUQCFEChS1ww1n+Kj3fEaQCF8VvV38nINUV4hmuGMcodq4Hr2JATyCr1v5IUu3G6I8gohcNJHVgT0KVqrLK+wq/7cx4Z6pnNfXKEXdz7CywYirhC+qXcv++lfoc62X4srhEU/P1mCsO2y1VlaYQbufD+7stAQbcvJ0goFzFCrgW0tUlohpvOiCbDCMkRphWCGnOj8KjAJgWWKKqwQvX91/IgqLEMUnuOjGXrb4Ao+xcdhJfBCDtW//QI2j19W/xZa0jrufATCHBuEv4wPa/vNouAxAWlsKSXUcucjzKyZgbj0mCtgY79dBHwmXhnbbxcBn8lzmrnK5tEMtbFSQ6ANJ6gw09cGwSUsuJyR/YbB8ZvDKn+x3zE0nvPKNM8Q/ZqhloTgYTwqBTqWffnvfujBwL6/KP8l7OTynZgTnfsVkzjB+FLv7nyE+vwEZ8CYzMJ7eieqL11QIawvfHIFWEHnfrkjVlAh1MB/omqqEcgpxD5ZIOs/pOUpN0Q5hdy1WjZEn6KcQu56Oxuic19MITtmgg0xxkNMITvuhQ+4NUuTEIgpBD8DJ0MAHVqQh5hCyJPHTS9Ag+bcl1KIMYQyBxlNwDddZohSCtFV5NWB8QMYYpmjS0ohxCP6c+dX3KSs8lIKSY+3LhgwXPKhCClEb59Y7l+4S8nanZBCjEcUS6RO+VKEZsCw/EXd7ckHfIqP4/txkXv4lPfG32iMwIsxN5YYwbqh3OGMOHCKh1N6ARqxpX0h1BueeLbfPQByZtgU577kuSLNSGzq3Y+okE/t95dHNE18EwzxUlKg5lOMg+w5vhN7BcQR7CtOxN+iLzO9V9hHFvgifo5YFncl8SPEQWnj4+o8Dqsnya4wkUgkopGNt4OL016rx89N31dLnvU3q1MAz2E/uJ1FPY4pm2lHDOy29b1g+fIDL/rcjyZyacqacV1PY37sFq853UbROC7LClJn7F92OsqLoPOpjIr4/b3ra8x35RcNfRJj9llel07nzW3D1aLSg7ALemJoz5a3xmVhwbbn4SHgEXC5/fgLfvAnIVGM8NxXgbI5gRvRQ8mctg91xjRpnv/IM5uMlK9JIorGAPHguR3rosR5dZDT3snOKM7mQHLatBCtDf0sKLrVZOSTe3Ziur4pOvafl4vepDd7fdP/QQ+QLA5lbtanc2Tmxccp78fQm5nVdxOeFdZtqKPJQjNz911yomuUb2y0G0IEXe8B/0nt97WuEIdEuolKd4raeWWahgnaEzXxCH4XB6010fTLOvX1dqbQeGMcLzUJNU6YCoNatFIf+VqqgJdkOIDoWF1ZIzicMSSFQzOtK6EabEkNdoaRPbTWFL98w3uvdXIVE7hX19ThwQojbVIHbbDxI4QYc9nD0OFxG1OnwC9oTTvYtrEhgaZI9pRpGJMaA3fgLe9IF4UQdeO0C6zb/04LFQhFNj5uGLbSdltDMJnRyqA19buzUgdMxjjQh/6CFvkC3hlj82u/rTfgYRpXY8EXQeu7YOZkjG+GnNSyXT7U33gCEZgMLQEu1N/Y/IKP2FfKFjP2TQ/gL6NFL0Hz9W4wXeGNh0AO0eyG542DSFrXZS2DvllhZw20e4aXiE4q2oxcy2dQ+D++wvrpPKvBOWAhIRyeQUvdjIyubr0By/CpcY4MdUGb4g9Ropb+m9qua74tHEnowR/ik/w93u9F6b8yPeqNOkbWnVvnynNbaPP/qfgyVOHI7tX47z17hfzt9JR/BQ/s3V8LzkYFR430BPjMFBT1/nzzOhgW/szYQWeIW70YvN4MipkcjPMZz5BdmxyfETlcTnZi8cW5vR7/w3EZURPgSHcVf8kN69AGeBNV4hEFgRbYSNsuuOHmpCD5YGvdhfa0CD91KsEUA7Sj/7A+cJctEZUL5yfkNgMZsLxFt7CC6+qLBmlGf7gvrMMouH5NlXHywUNLJ6WdRte9PbgvXWUbhlvD/wHPLfzHoZ4b5fbBdNGprI+0nH7hPV5s6o6q8m0hDmIXS9+J3laZTwyPYy8D/9FGmTCubgOG0ZSQz+bLq3nfr6H01vPlcj4LFV6SSCQSiUQikUgkEj/8AWJ4m338uIc8AAAAAElFTkSuQmCC;" vertex="1" parent="PmWIVXRI8UOth7mFPXQt-1">
          <mxGeometry x="-228.44" y="81.30000000000001" width="50.5" height="50.5" as="geometry" />
        </mxCell>
        <mxCell id="EASqT5YvoOArML-Uo-MZ-0" value="" style="rounded=1;whiteSpace=wrap;html=1;strokeWidth=2;fillWeight=4;hachureGap=8;hachureAngle=45;fillColor=#1ba1e2;sketch=1;labelBackgroundColor=#ffffff;arcSize=0;" vertex="1" parent="PmWIVXRI8UOth7mFPXQt-1">
          <mxGeometry x="-468.1" y="210" width="320" height="170" as="geometry" />
        </mxCell>
        <mxCell id="PmWIVXRI8UOth7mFPXQt-20" value="img" style="text;html=1;strokeColor=none;fillColor=none;align=center;verticalAlign=middle;whiteSpace=wrap;rounded=0;fontSize=22;" parent="PmWIVXRI8UOth7mFPXQt-1" vertex="1">
          <mxGeometry x="-315.9751037344398" y="294.4275" width="10.622406639004147" height="19.791666666666668" as="geometry" />
        </mxCell>
        <mxCell id="ZGRMwBKoA33KEGz7zdXd-0" value="" style="rounded=1;whiteSpace=wrap;html=1;strokeWidth=2;fillWeight=4;hachureGap=8;hachureAngle=45;sketch=1;labelBackgroundColor=#ffffff;fillColor=#FF0000;" vertex="1" parent="PmWIVXRI8UOth7mFPXQt-1">
          <mxGeometry x="-460.66" y="400" width="300" height="200" as="geometry" />
        </mxCell>
        <mxCell id="ZGRMwBKoA33KEGz7zdXd-1" value="" style="rounded=1;whiteSpace=wrap;html=1;strokeWidth=2;fillWeight=4;hachureGap=8;hachureAngle=45;sketch=1;labelBackgroundColor=#ffffff;arcSize=0;fontColor=#FFFF33;fillColor=#E6E6E6;" vertex="1" parent="PmWIVXRI8UOth7mFPXQt-1">
          <mxGeometry x="-469.34" y="610" width="320" height="146" as="geometry" />
        </mxCell>
        <mxCell id="PmWIVXRI8UOth7mFPXQt-7" value="REGISTRATE" style="text;html=1;strokeColor=none;fillColor=none;align=center;verticalAlign=middle;whiteSpace=wrap;rounded=0;fontSize=22;" parent="PmWIVXRI8UOth7mFPXQt-1" vertex="1">
          <mxGeometry x="-309.33742738589217" y="650.0008333333334" width="10.622406639004147" height="19.791666666666668" as="geometry" />
        </mxCell>
        <mxCell id="PmWIVXRI8UOth7mFPXQt-13" value="" style="rounded=1;whiteSpace=wrap;html=1;" parent="PmWIVXRI8UOth7mFPXQt-1" vertex="1">
          <mxGeometry x="-363.7753087625091" y="689.9958333333334" width="122.15767634854771" height="39.583333333333336" as="geometry" />
        </mxCell>
        <mxCell id="PmWIVXRI8UOth7mFPXQt-29" value="Ingresa mail" style="text;html=1;strokeColor=none;fillColor=none;align=center;verticalAlign=middle;whiteSpace=wrap;rounded=0;" parent="PmWIVXRI8UOth7mFPXQt-1" vertex="1">
          <mxGeometry x="-322.83897181656516" y="699.7900000000001" width="41.38599989222396" height="20" as="geometry" />
        </mxCell>
        <mxCell id="ZGRMwBKoA33KEGz7zdXd-2" value="" style="rounded=1;whiteSpace=wrap;html=1;strokeWidth=2;fillWeight=4;hachureGap=8;hachureAngle=45;sketch=1;labelBackgroundColor=#ffffff;arcSize=0;fontColor=#FFFF33;fillColor=#E6E6E6;" vertex="1" parent="PmWIVXRI8UOth7mFPXQt-1">
          <mxGeometry x="-469.59" y="757" width="320" height="107" as="geometry" />
        </mxCell>
        <mxCell id="PmWIVXRI8UOth7mFPXQt-12" value="&lt;h1&gt;&amp;nbsp; &amp;nbsp; &amp;nbsp; &amp;nbsp; &amp;nbsp; &amp;nbsp; &amp;nbsp; &amp;nbsp; BierClub&lt;/h1&gt;&lt;p&gt;Lorem ipsum dolor sit amet, consectetur adipisicing elit, sed do eiusmod tempor incididunt ut labore et dolore magna aliqua.&lt;/p&gt;" style="text;html=1;strokeColor=none;fillColor=none;spacing=5;spacingTop=-20;whiteSpace=wrap;overflow=hidden;rounded=0;" parent="PmWIVXRI8UOth7mFPXQt-1" vertex="1">
          <mxGeometry x="-470" y="759.89" width="318.6721991701245" height="118.75" as="geometry" />
        </mxCell>
        <mxCell id="ZGRMwBKoA33KEGz7zdXd-4" value="" style="rounded=1;whiteSpace=wrap;html=1;strokeWidth=2;fillWeight=4;hachureGap=8;hachureAngle=45;sketch=1;labelBackgroundColor=#ffffff;arcSize=0;fontColor=#FFFF33;fillColor=#E6E6E6;" vertex="1" parent="PmWIVXRI8UOth7mFPXQt-1">
          <mxGeometry x="-471.33" y="864" width="320" height="76" as="geometry" />
        </mxCell>
        <mxCell id="PmWIVXRI8UOth7mFPXQt-16" value="face" style="text;html=1;strokeColor=none;fillColor=none;align=center;verticalAlign=middle;whiteSpace=wrap;rounded=0;fontSize=22;" parent="PmWIVXRI8UOth7mFPXQt-1" vertex="1">
          <mxGeometry x="-413.0011618257262" y="899.9991666666667" width="10.622406639004147" height="19.791666666666668" as="geometry" />
        </mxCell>
        <mxCell id="PmWIVXRI8UOth7mFPXQt-17" value="ig" style="text;html=1;strokeColor=none;fillColor=none;align=center;verticalAlign=middle;whiteSpace=wrap;rounded=0;fontSize=22;" parent="PmWIVXRI8UOth7mFPXQt-1" vertex="1">
          <mxGeometry x="-313.4160995850623" y="899.9991666666667" width="10.622406639004147" height="19.791666666666668" as="geometry" />
        </mxCell>
        <mxCell id="PmWIVXRI8UOth7mFPXQt-18" value="wpp" style="text;html=1;strokeColor=none;fillColor=none;align=center;verticalAlign=middle;whiteSpace=wrap;rounded=0;fontSize=22;" parent="PmWIVXRI8UOth7mFPXQt-1" vertex="1">
          <mxGeometry x="-228.43684647302908" y="899.9991666666667" width="10.622406639004147" height="19.791666666666668" as="geometry" />
        </mxCell>
      </root>
    </mxGraphModel>
  </diagram>
</mxfile>
